<svg xmlns="http://www.w3.org/2000/svg" viewBox="0 0 512 512">
  <defs>
    <linearGradient id="e" x1="0" x2="0" y1="0" y2="1">
      <stop offset="0%" stop-color="#cf4d7a"/>
      <stop offset="100%" stop-color="#fff"/>
    </linearGradient>
    <linearGradient id="h" x1="0" x2="0" y1="0" y2="1">
      <stop offset="0%" stop-color="#fff" stop-opacity=".4"/>
      <stop offset="25%" stop-color="#fff" stop-opacity="0"/>
    </linearGradient>
    <linearGradient id="g" x1="0" x2="0" y1="0" y2="1">
      <stop offset="20%" stop-color="#e99fc1"/>
      <stop offset="80%" stop-color="#da5f8b"/>
    </linearGradient>
    <linearGradient id="i" x1="0" x2="0" y1="0" y2="1">
      <stop offset="0%"/>
      <stop offset="100%" stop-color="#fff"/>
    </linearGradient>
    <linearGradient id="b" x1="0" x2="0" y1="0" y2="1">
      <stop offset="0%" stop-color="#c95179"/>
      <stop offset="100%" stop-color="#e587ae"/>
    </linearGradient>
    <linearGradient id="a" x1="0" x2="0" y1="0" y2="1">
      <stop offset="0%" stop-color="#e8a4c5"/>
      <stop offset="100%" stop-color="#cb4e7a"/>
    </linearGradient>
    <radialGradient id="c" cx=".5" cy=".5" r=".7" fx=".5" fy=".3" spreadMethod="pad">
      <stop offset="10%" stop-color="#fae7fa"/>
      <stop offset="100%" stop-color="#cf4d7a"/>
    </radialGradient>
    <radialGradient id="f" cx=".5" cy=".5" r=".5" fx=".5" fy=".3">
      <stop offset="0%" stop-color="#fff"/>
      <stop offset="100%"/>
    </radialGradient>
    <radialGradient id="d" cx=".1" cy=".1" r=".7" fx=".5" fy=".3">
      <stop offset="0%" stop-color="#7a162f"/>
      <stop offset="100%" stop-color="#a92851"/>
    </radialGradient>
  </defs>
  <path fill="url(#a)" d="M34 18c74-27 130 23 131 24-1-1-103 98-105 99 0 0-47-54-26-123z"/>
  <path fill="url(#b)" d="M51 34c57-21 102 18 102 18l-82 79S34 89 51 34z"/>
  <path fill="url(#a)" d="M416 2h26c36 34 43 73 23 117l-5 6c-22-26-48-48-78-66-13-6-25-14-38-21 21-19 45-31 72-36z"/>
  <path fill="url(#b)" d="M416 18h20c28 26 34 57 18 92l-3 5c-18-21-39-38-62-52l-30-17c16-15 35-24 57-28z"/>

  <path fill="url(#c)" d="M448 376c3 38 1 76-6 114-1 7-4 12-8 17-28 1-56 2-84 1-10-3-17-8-22-16-5-14-15-21-29-21l-12-1-25 2c45-11 88-27 129-48 18-11 36-24 51-40l6-8z"/>
  <path fill="url(#d)" d="M221 467a392 392 0 0 1 43 4c-1 9-3 17-6 26l-6 9-82 1c14-6 23-16 29-30 6-6 14-9 22-10z"/>
  <path fill="url(#c)" d="M71 375c26 29 57 50 94 65 30 13 62 23 95 31l-26-2c-13-1-25 3-35 10-4 10-10 17-17 24l-11 4a1599 1599 0 0 1-85-2c-4-4-6-9-7-14-5-24-8-48-8-73v-43z"/>
  <path fill="url(#d)" d="M294 469h28c9 1 16 5 22 11 5 14 15 23 29 28h-80c-4-2-8-5-9-10-4-9-5-18-4-27l14-2z"/>

  <ellipse cx="256" cy="256" rx="256" ry="235" fill="url(#c)"/>

  <ellipse cx="210" cy="160" rx="18" ry="24" transform="skewX(-10)"/>
  <ellipse cx="302" cy="160" rx="18" ry="24" transform="skewX(10)"/>
  <ellipse cx="210" cy="160" rx="19" ry="25" fill="none" stroke="url(#e)" stroke-width="2" transform="skewX(-10)"/>
  <ellipse cx="302" cy="160" rx="19" ry="25" fill="none" stroke="url(#e)" stroke-width="2" transform="skewX(10)"/>
  <ellipse cx="212" cy="157" rx="10" ry="15" fill="url(#f)" transform="skewX(-10)"/>
  <ellipse cx="300" cy="157" rx="10" ry="15" fill="url(#f)" transform="skewX(10)"/>

  <ellipse cx="256" cy="280" rx="90" ry="70" fill="url(#g)"/>
  <ellipse cx="256" cy="280" rx="81" ry="61" fill="none" stroke="url(#h)" stroke-width="10"/>
  <ellipse cx="220" cy="280" rx="14" ry="18" fill="#d15b7d"/>
  <ellipse cx="292" cy="280" rx="14" ry="18" fill="#d15b7d"/>
  <ellipse cx="220" cy="280" rx="14" ry="19" fill="none" stroke="url(#i)"/>
  <ellipse cx="292" cy="280" rx="14" ry="19" fill="none" stroke="url(#i)"/>
</svg>