<svg xmlns="http://www.w3.org/2000/svg" width="744" height="744" version="1" viewBox="0 0 558 558"><path d="M89 8l-5 6a90 90 0 00-16 78l3 9 3 7-5 5a266 266 0 00-56 97 88 88 0 00-5 20l-2 12-1 1v4l-1 6v3l-1 22 1 24 1 6 1 10v2l1 5 1 5a276 276 0 009 27v2l1 3 2 3v3l1 1 1 1c-1 2 18 37 23 43l7 9 7 9 1 2 3 4 4 5v26a278 278 0 001 33v1l1 6v7l1 6 1 6 1 6a38 38 0 005 13v2l2 3 3 3h24a258 258 0 0126 0 87 87 0 0124 0 168 168 0 0132 0h14c0-1 3-1 5 1l1-1h6l7-1 1-1c2 2 8-9 9-16v-6a472 472 0 0094-2l3 7c1 7 4 14 7 17 2 1 4 2 11 2l9 1h1c0-1 8-2 11-1h3a163 163 0 0124 0h42c0-1 22-1 23 1h1l4-1h10l3-1 1-1c2 0 8-13 9-20l1-10 3-27v-10-4-4l1-18c-1-14 0-18 1-19a234 234 0 0044-69l1-1v-1l1-2 2-7 1-1 3-8 3-10 3-14 2-6v-6l1-2 1-5 1-5-1-1v-1l1-21a98 98 0 00-1-20l-1-17v-3l-1-3v-2l-1-4-1-5-1-4v-1-1l-2-6-8-23a349 349 0 00-34-60l-5-6-3-4 3-5 3-6v-2-1l1-1 1-1v-1a76 76 0 004-36l-1-7-1-1-1-3-2-7-2-6-1-1-3-4-4-7-1-2-2-2-6-7-5-5-9-1-10 1h-1-3l-10 3-8 2-1 1h-1l-2 1h-3l-9 6h-1-2l-2 2-4 2-4 3c-4 2-13 10-13 11s-1 1-5-1l-4-1-1-1-1-1h-3l-3-2a293 293 0 00-22-6l-8-2-1-1-8-1-3-1-1-1-8-1-9-1-12-2h-58l-12 2-7 1-4 1-5 1-11 2-6 1-5 2-9 2-5 2-5-4-11-9a194 194 0 00-33-14l-7-2-5-1h-2l-5-1-6-1-2-1-13-1c-6-1-6-1-9 3z"/></svg>
