<svg xmlns="http://www.w3.org/2000/svg" width="512" height="512"><path fill="#f7dbeb" d="M403.5 19.5a312.6 312.6 0 0 1 8-3 100.1 100.1 0 0 1 29-1.5c5.3 5 4.6 5.7-2 2-12.3-1.6-24-.1-35.5 4.5l-1.5-.5c1-.3 1.6-.8 2-1.5Z"/><path fill="#e8a5c6" d="M154.5 21.5c1.6 3.8 4.3 6.8 8 9 1 .9 1 1.6 0 2a136.4 136.4 0 0 0-17-10.5 52.9 52.9 0 0 0-7-1.5c-3.3-.3-6.5 0-9.5 1-1.3-2.4-2.3-2.4-3 0-.7-2.4-1.7-2.4-3 0l-2-2c-.4 1.3-1.3 2-2.5 2a115 115 0 0 0-28-3.5 32 32 0 0 0-7 9.5c-1.4.5-2 1.5-2 3a72.4 72.4 0 0 0-12 .5A42.2 42.2 0 0 0 64 42.5c-.5-2.5-.3-5 .5-7.5-.2-1.4-.8-2.2-2-2.5a71.8 71.8 0 0 1 21-31c25.3 1.6 49 8.2 71 20Z"/><path fill="#f5d2e6" d="M130.5 16.5a110.3 110.3 0 0 0-47-9.5 54 54 0 0 0-9 12.5 7 7 0 0 0-2.5 2l-.5-1a60.2 60.2 0 0 1 10-15c2-1.5 4.4-2.2 7-2a810.4 810.4 0 0 1 39 8.5 75.8 75.8 0 0 1 18 8 122 122 0 0 1-15-3.5Z"/><path fill="#edb0d2" d="M130.5 16.5c-11 0-21.5.4-31.5 1l-4-2c-5.6 1.6-11.4 2-17.5 1.5a10.5 10.5 0 0 1-3 2.5 54 54 0 0 1 9-12.5 111 111 0 0 1 47 9.5Z"/><path fill="#efb7d6" d="M450.5 22.5a8.4 8.4 0 0 0 .5 4l5 7c.7 1 .7 2 0 3a41 41 0 0 1-5-7 27 27 0 0 1-6.5-5.5 529.2 529.2 0 0 0-46 0 62.3 62.3 0 0 0-13 7.5c-5 1.8-9.3 4.7-13 8.5-1 .7-2 .7-3 0a99 99 0 0 1 34-20.5c-.4.7-1 1.2-2 1.5l1.5.5a68.7 68.7 0 0 1 35.5-4.5c6.6 3.7 7.3 3 2-2a100.1 100.1 0 0 0-29 1.5l1-2a100.1 100.1 0 0 1 29-1.5 37 37 0 0 1 9 9.5Z"/><path fill="#d56b98" d="M363.5 41.5v1c-.9-.1-1.5.2-2 1a9 9 0 0 1 3 3 316.1 316.1 0 0 0-55-18.5 271.4 271.4 0 0 0-150 13l-29 14.5a219 219 0 0 1 20-13c.7 0 1-.3 1-1 1.3.2 2.3-.1 3-1l16-7a281.6 281.6 0 0 1 193 8Z"/><path fill="#c95179" d="M118.5 21.5a81.9 81.9 0 0 1 36 19c-.7.9-1.7 1.2-3 1-4.3-4-9.1-7.3-14.5-10l-1 1a53.2 53.2 0 0 0-7.5-3.5 83.7 83.7 0 0 0-34-4 20 20 0 0 0-9 7.5c-1.3 0-2 .7-2.5 2 0-2.3.1-4.6.5-7 1.7-3.6 4-6.7 7-9.5a115 115 0 0 1 28 3.5Z"/><path fill="#eba9cb" d="M450.5 22.5c3.7 3.8 6.7 8.1 9 13-1.4 3-1 5.6 1.5 8a55.4 55.4 0 0 1 2 12 44.9 44.9 0 0 0-5.5-13 16.9 16.9 0 0 0-8-1 88.8 88.8 0 0 0-12-15.5 46.3 46.3 0 0 0-17-1 131.2 131.2 0 0 0-23 6.5h-12a62.3 62.3 0 0 1 13-7.5 529.2 529.2 0 0 1 46 0 27 27 0 0 0 6.5 5.5 41 41 0 0 0 5 7c.7-1 .7-2 0-3l-5-7a8.4 8.4 0 0 1-.5-4Z"/><path fill="#e178a6" d="M364.5 46.5a67.7 67.7 0 0 1 16 7.5c8.5 5.4 16.5 11.2 24 17.5v3a13.6 13.6 0 0 0-6-2 241.8 241.8 0 0 0-46-25c-.8-3-2.8-4.8-6-5.5a273 273 0 0 0-165-5 4.2 4.2 0 0 0-3 2.5 340.2 340.2 0 0 0-55 25.5 216 216 0 0 0-37 32.5 62.3 62.3 0 0 0-9 7c-.4-1-1-1.2-2-.5a397 397 0 0 1-15 17.5 5.7 5.7 0 0 0 1-3c1.2-3.4 3-6.4 5.5-9 5.5-4 9.8-9 13-15a1015.8 1015.8 0 0 1 28.5-26c6.9-5.3 14.2-9.6 22-13l29-14.5a271.4 271.4 0 0 1 150-13 316.1 316.1 0 0 1 55 18.5Z"/><path fill="#e382ad" d="M352.5 47.5a282.1 282.1 0 0 0-129-16.5 531 531 0 0 0-45 8.5 4.2 4.2 0 0 1 3-2.5 273 273 0 0 1 165 5c3.2.7 5.2 2.6 6 5.5Z"/><path fill="#e799be" d="M154.5 21.5a145.6 145.6 0 0 1 16 12 1808.4 1808.4 0 0 1-16 7 81.9 81.9 0 0 0-36-19c1.3 0 2-.7 2.5-2l2 2c1.3-2.4 2.3-2.4 3 0 .7-2.4 1.7-2.4 3 0 3-1 6.2-1.3 9.5-1 2.4.3 4.7.8 7 1.5a136.4 136.4 0 0 1 17 10.5c1-.4 1-1.1 0-2a18.7 18.7 0 0 1-8-9Z"/><path fill="#d75d89" d="M151.5 41.5c0 .7-.3 1-1 1a103.7 103.7 0 0 0-44-10c-6-.2-11.7 1-17 3.5A70.6 70.6 0 0 0 80 46.5a121.1 121.1 0 0 1 5.5-14 20 20 0 0 1 9-7.5c11.3-1 22.6.3 34 4a53.2 53.2 0 0 1 7.5 3.5l1-1c5.4 2.7 10.2 6 14.5 10Z"/><path fill="#c95078" d="M449.5 41.5a7 7 0 0 0 2 4c0 .4-.1.8-.5 1a38.4 38.4 0 0 0-5.5-5c-4.9-5.7-11-9-18.5-10a83.8 83.8 0 0 0-44.5 16c-1.7 4.8-4 4.8-7 0a24 24 0 0 1 7-6.5 3903.2 3903.2 0 0 0 15-9.5 131.2 131.2 0 0 1 23-6.5 46.3 46.3 0 0 1 17 1 88.8 88.8 0 0 1 12 15.5Z"/><path fill="#ecaac9" d="M352.5 47.5c16.3 6.7 31.7 15 46 25a230 230 0 0 1 26 25 162.8 162.8 0 0 1 20 32 168 168 0 0 1 5 20c-.3 1.6 0 3 1 4 .7 5 1 10 1 15 .3 2.6 0 4.9-1 7a85 85 0 0 0-10-36.5l1-1a182.7 182.7 0 0 0-123-97c-67-16.4-130-7.3-189 27.5a167 167 0 0 0-69 99v-7a116.3 116.3 0 0 1 2-15c1.6-4.1 2.6-8.5 3-13a212 212 0 0 0 9.5-19 260.5 260.5 0 0 0 11.5-16 216 216 0 0 1 37-32.5 340.2 340.2 0 0 1 55-25.5 531 531 0 0 1 45-8.5 283 283 0 0 1 129 16.5Z"/><path fill="#eeb1ce" d="M450.5 175.5v5a317 317 0 0 0-3 13c-2.6-.6-2.6-1.4 0-2.5-.9-2.6-.9-5 0-7-2.3-2-2.3-3.8 0-5.5-3.7-30.6-16.5-58-38.5-82A208 208 0 0 0 299.5 40c-52-8.3-101.5-1.5-148.5 20.5-41.8 21.4-70 54-84.5 97.5l1 1a157.6 157.6 0 0 0-3 13l1 1a7.2 7.2 0 0 0-2 2.5c1.3 1 1.3 2 0 3l3 2.5a9.6 9.6 0 0 0-3 5 10 10 0 0 1 1 8.5h-1a68.7 68.7 0 0 0-3-13v-14a167 167 0 0 1 69-99 244 244 0 0 1 189-27.5c55.7 14 96.7 46.3 123 97l-1 1a85 85 0 0 1 10 36.5Z"/><path fill="#d75b88" d="M445.5 41.5a17 17 0 0 1 3.5 8 29.8 29.8 0 0 0-7-6c-1.5 1.2-3 1-4.5-.5l-16.5-.5a96.6 96.6 0 0 0-22.5 2l-2-2a70.3 70.3 0 0 1-14 5 83.8 83.8 0 0 1 44.5-16c7.5 1 13.6 4.3 18.5 10Z"/><path fill="#e49bbe" d="m412.5 14.5-1 2-8 3a99 99 0 0 0-34 20.5c1 .7 2 .7 3 0a33 33 0 0 1 13-8.5h12a3903.2 3903.2 0 0 1-15 9.5 24 24 0 0 0-7 6.5 4730.7 4730.7 0 0 1-12-5v-1a118 118 0 0 1 49-27Z"/><path fill="#e28eb3" d="M81.5 30.5a56.3 56.3 0 0 0-6 20c-.9.7-1.2 1.7-1 3h-1c.2-3 .5-6 1-9-4.4-.7-8.3.3-11.5 3 0-2.6-.8-4.6-2.5-6-.1-3.2.6-6.2 2-9 1.1.3 1.8 1.1 2 2.5-.8 2.5-1 5-.5 7.5A42.2 42.2 0 0 1 69.5 31a72.4 72.4 0 0 1 12-.5Z"/><path fill="#e08cb1" d="M459.5 35.5a52.8 52.8 0 0 1 7 18 9.7 9.7 0 0 0-2.5 7 9 9 0 0 0-7.5-2 114 114 0 0 0-5-13 7 7 0 0 1-2-4c2.7-.3 5.4 0 8 1a44.9 44.9 0 0 1 5.5 13 55.4 55.4 0 0 0-2-12c-2.4-2.4-3-5-1.5-8Z"/><path fill="#e279a2" d="M105.5 64.5v-5c-7.4-.3-14.7 0-22 1a14 14 0 0 1-4.5 6c0 3.5-.8 6.5-2.5 9a75.5 75.5 0 0 1-2-22c-.2-1.3.1-2.3 1-3a41 41 0 0 0 .5 9 273.5 273.5 0 0 1 5-7 56.6 56.6 0 0 0 5.5-4c13.3-1 26.6-1.3 40-1-.4 4.3 1.2 5 5 2 1.2.3 1.2.8 0 1.5-9.2 3.7-17.8 8.2-26 13.5Z"/><path fill="#d9779f" d="M60.5 41.5a7.5 7.5 0 0 1 2.5 6c3.2-2.7 7-3.7 11.5-3a104.6 104.6 0 0 0-1 9v10c-.8-1.8-1.3-3.8-1.5-6a220.5 220.5 0 0 0-13.5 3c.2 1.3-.1 2.3-1 3a98.3 98.3 0 0 1 .5-14c.3-3 1.1-5.6 2.5-8Z"/><path fill="#e8acc8" d="M73.5 53.5h1a75.5 75.5 0 0 0 2 22 102.8 102.8 0 0 1 3 11c0 .4-.1.8-.5 1-.3-1-.8-1.6-1.5-2a71.2 71.2 0 0 0-3-9 77.2 77.2 0 0 1-1-13v-10Z"/><path fill="#e587ae" d="M105.5 64.5a400.9 400.9 0 0 0-26 22 102.8 102.8 0 0 0-3-11c1.7-2.5 2.6-5.5 2.5-9a14 14 0 0 0 4.5-6 127.7 127.7 0 0 1 22-1v5Z"/><path fill="#e27fa7" d="M466.5 53.5a27.1 27.1 0 0 1 2 10 9.3 9.3 0 0 1-3.5 6c-2.4-1-4.9-1.3-7.5-1 .3 5.2 0 10.2-1 15a25 25 0 0 0-.5-7 37.3 37.3 0 0 1-2.5 8c-1.9.1-2.2-.4-1-1.5a14 14 0 0 0-3-4 90.5 90.5 0 0 0-19 0c-1 .7-1.1 1.6-.5 2.5a51.1 51.1 0 0 0 5.5 4 6.8 6.8 0 0 1 1 4 382.4 382.4 0 0 1-21-17c1.5-1.3 1.1-2.2-1-2.5a6.8 6.8 0 0 0 3-1.5 366.8 366.8 0 0 1 36-1c.5 6.5 1.5 7 3 1.5a9.3 9.3 0 0 0-2-2.5c1.3-1 1.3-2 0-3a6 6 0 0 0 2-5 9 9 0 0 1 7.5 2c0-2.9.8-5.2 2.5-7Z"/><path fill="#d3608c" d="M73.5 63.5a77.1 77.1 0 0 0 1 13c-4.8-.5-9.4-.5-14 0a44.3 44.3 0 0 0-2-3c-1-3.1-1.3-6.5-1-10 .9-.7 1.2-1.7 1-3a220.5 220.5 0 0 1 13.5-3c.2 2.2.7 4.2 1.5 6Z"/><path fill="#eca9c6" d="M456.5 83.5a53.8 53.8 0 0 0-2 8l-5 10c-1.1-1.4-1.3-3.1-.5-5a52.3 52.3 0 0 0 4.5-12 37.3 37.3 0 0 0 2.5-8c.5 2.3.7 4.6.5 7Z"/><path fill="#d15e89" d="M468.5 63.5c1.4 9 .7 18-2 27a37 37 0 0 1-12 1 53.8 53.8 0 0 1 2-8c1-4.8 1.3-9.8 1-15 2.6-.3 5.1 0 7.5 1 2-1.5 3.1-3.5 3.5-6Z"/><path fill="#e78db3" d="M453.5 84.5a52.3 52.3 0 0 1-4.5 12c-.8 1.9-.6 3.6.5 5v1a35.2 35.2 0 0 1-8-6 43.2 43.2 0 0 0-5-7 6.8 6.8 0 0 0-1-4 51.1 51.1 0 0 1-5.5-4c-.6-1-.5-1.8.5-2.5a90.5 90.5 0 0 1 19 0 14 14 0 0 1 3 4c-1.2 1.1-.9 1.6 1 1.5Z"/><path fill="#cb4e7a" d="M58.5 73.5a44.3 44.3 0 0 1 2 3c4.6-.5 9.2-.5 14 0a71.2 71.2 0 0 1 3 9c0 1.7-.7 3-2 4a70.9 70.9 0 0 0-10 10 3 3 0 0 1-3 1 7 7 0 0 0 2-3.5 84.8 84.8 0 0 1-6-23.5Z"/><path fill="#dc6692" d="M75.5 89.5c-6.1 9.7-13 19-20.5 28-44.4 70.4-49.4 144.4-15 222 37.7 68 94.9 109.5 171.5 124.5a256.7 256.7 0 0 0 192-44c67.4-53.3 97-122.8 89-208.5a225.6 225.6 0 0 0-51.5-113c-.7-1-.5-1.6.5-2a35.2 35.2 0 0 0 8 6 40.8 40.8 0 0 1 4.5 6 4 4 0 0 0 3.5 2 7 7 0 0 1 2 3 478.2 478.2 0 0 0 20.5 41c33.4 84 22 161.7-34 233a256.7 256.7 0 0 1-96.5 68.5c-22.9 8.2-46 14-69.5 17.5a7695 7695 0 0 0-49 0 261.8 261.8 0 0 1-165-85c-58.7-75.3-69-156-31-242a1204.6 1204.6 0 0 1 13.5-24 6.8 6.8 0 0 1-1-4 96.4 96.4 0 0 1 15-18 3 3 0 0 0 3-1 70.9 70.9 0 0 1 10-10Z"/><path fill="#ca4d78" d="M466.5 90.5a94.3 94.3 0 0 1-9 20 4 4 0 0 1-3.5-2 40.8 40.8 0 0 0-4.5-6v-1l5-10c4.1.3 8.1 0 12-1Z"/><path fill="#de6c97" d="M83.5 27.5a45.3 45.3 0 0 0-.5 7c.4-1.3 1.3-2 2.5-2a121.1 121.1 0 0 0-5.5 14A70.6 70.6 0 0 1 89.5 36c5.3-2.5 11-3.7 17-3.5 15.5.1 30.2 3.5 44 10a219 219 0 0 0-20 13c-7.8 3.4-15.1 7.7-22 13a1015.8 1015.8 0 0 0-28.5 26c-3.2 6-7.5 11-13 15a25.3 25.3 0 0 0-5.5 9 956 956 0 0 0-18 24.5C12 210.7 13.2 278.2 47 345.5c43 71 106.2 110 189.5 117.5 77.2 5.2 142.7-19.6 196.5-74.5a216.4 216.4 0 0 0 56-174 259.7 259.7 0 0 0-9-41 506.7 506.7 0 0 0-16.5-39 3 3 0 0 1-3-1 195.2 195.2 0 0 0-56-62 218.4 218.4 0 0 0-24-17.5 67.7 67.7 0 0 0-16-7.5 9 9 0 0 0-3-3c.5-.8 1.1-1.1 2-1a4730.7 4730.7 0 0 0 12 5c3 4.8 5.3 4.8 7 0a70.3 70.3 0 0 0 14-5l2 2a96.6 96.6 0 0 1 22.5-2l16.5.5c1.5 1.5 3 1.7 4.5.5a29.8 29.8 0 0 1 7 6 17 17 0 0 0-3.5-8 38.4 38.4 0 0 1 5.5 5c.4-.2.6-.6.5-1a114 114 0 0 1 5 13 6 6 0 0 1-2 5c1.3 1 1.3 2 0 3a9.3 9.3 0 0 1 2 2.5c-1.5 5.5-2.5 5-3-1.5a10.1 10.1 0 0 0-1.5-4 38 38 0 0 0-7.5-7.5 529.2 529.2 0 0 0-46 0c1.9 1 2.2 2.4 1 4 3 1.7 5.3 4 7 7a1853.6 1853.6 0 0 1 9 5.5 382.4 382.4 0 0 0 21 17 43.2 43.2 0 0 1 5 7c-1 .4-1.2 1-.5 2a225.6 225.6 0 0 1 51.5 113c8 85.7-21.6 155.2-89 208.5a256.7 256.7 0 0 1-192 44C134.9 449 77.7 407.5 40 339.5c-34.4-77.6-29.4-151.6 15-222 7.5-9 14.4-18.3 20.5-28 1.3-1 2-2.3 2-4 .7.4 1.2 1 1.5 2 .4-.2.6-.6.5-1a400.9 400.9 0 0 1 26-22c8.2-5.3 16.8-9.8 26-13.5 1.2-.7 1.2-1.2 0-1.5-3.8 3-5.4 2.3-5-2-13.3-.3-26.7 0-40 1a56.6 56.6 0 0 1-5.5 4 273.5 273.5 0 0 0-5 7 41 41 0 0 1-.5-9c.8-7.1 2.8-13.8 6-20 0-1.5.6-2.5 2-3Z"/><path fill="#e27aa3" d="M398.5 72.5c2.2.2 4.2.9 6 2a173 173 0 0 1 43.5 45 11.5 11.5 0 0 0 4.5 3.5 3.6 3.6 0 0 0-1 1.5 35 35 0 0 1 6.5 12 11.3 11.3 0 0 0 3.5 1.5v4c31 65.4 30.6 131-1.5 196.5a235.2 235.2 0 0 1-23 34c-.4 3.1-1.8 5.8-4 8-47.7 51-106.9 77-177.5 78-58.3-.6-110-19.1-155-55.5A442.3 442.3 0 0 1 76 377.5a23 23 0 0 1-2-5c-46.8-61.6-58.8-129.2-36-203A186.6 186.6 0 0 1 49.5 143l-2-1c1-1.2 2.4-1.7 4-1.5 2-6.6 5.3-12.4 10-17.5-.6-.4-.9-.9-1-1.5a397 397 0 0 0 15-17.5c1-.7 1.6-.5 2 .5a129.6 129.6 0 0 1-13.5 17 103.7 103.7 0 0 1-5.5 10c-9 13.5-15.9 28.2-20.5 44-22 83.7-2.6 156.2 58.5 217.5a238 238 0 0 0 134 58 249 249 0 0 0 161-39.5 213.1 213.1 0 0 0 91-167c.6-31.8-5.5-62.8-18.5-93a347.4 347.4 0 0 0-12.5-22c-3.9-6.2-8.4-12.2-13.5-18-2.1-7-6.6-11.6-13.5-14a230 230 0 0 0-26-25Z"/><path fill="#e1769f" d="M453.5 67.5a366.8 366.8 0 0 0-36 1 6.8 6.8 0 0 1-3 1.5c2.1.3 2.5 1.2 1 2.5a1814.9 1814.9 0 0 0-9-5.5c-1.7-3-4-5.3-7-7 1.2-1.6.9-3-1-4a529.2 529.2 0 0 1 46 0 38 38 0 0 1 7.5 7.5 10.1 10.1 0 0 1 1.5 4Z"/><path fill="#d85986" d="M482.5 146.5a206.6 206.6 0 0 1 18 39c-1.3 0-2-.7-2.5-2 21.4 98.9-6.4 180.4-83.5 244.5-70.3 51-147 65.6-230 44A247 247 0 0 1 28 343.5a229.7 229.7 0 0 1-14.5-157c0-1.5-.3-2.9-1-4a152.6 152.6 0 0 1 5.5-16 480.1 480.1 0 0 1 11.5-21c.6-.1 1.1-.4 1.5-1a11 11 0 0 0 1.5 3.5C-5.8 234.9 4.3 315.7 63 390.5c65.8 70 146 97.5 240.5 82.5 84.6-17.6 145-65.1 181.5-142.5a65284.3 65284.3 0 0 1 11-34c5.6-25.8 6.9-51.8 4-78a863.8 863.8 0 0 1-8-37 2545.7 2545.7 0 0 0-12.5-34l.5-2c.7.8 1.5 1 2.5 1Z"/><path fill="#f1b8d6" d="M447.5 193.5v1a8345.7 8345.7 0 0 1-7 20 155.2 155.2 0 0 1-69 63.5 549.8 549.8 0 0 1-21 8.5 60.7 60.7 0 0 0-2-18c3.8-1.5 7.8-2.3 12-2.5 8.2-4.8 16.9-8.8 26-12 4-4.7 9-7.7 15-9a463.4 463.4 0 0 1 17-14 14 14 0 0 0 9-6c-1.2-1.9-.7-3.4 1.5-4.5a23 23 0 0 1 2 5 27.3 27.3 0 0 1 3.5-6c-.7-1.9-1.7-2.5-3-2 .5-2.1 1.5-4 3-5.5a7 7 0 0 1 1.5-8.5 34 34 0 0 1 1.5-7.5 4 4 0 0 1-1-2 17.9 17.9 0 0 1 5-5 30 30 0 0 1 0-8c-.4-1.8-1-1.6-1.5.5-.5-1.6 0-3 1.5-4-3.3-28.7-14.6-54-34-76a192.8 192.8 0 0 0-103-56.5c-52-10-102-4-150 18a175.2 175.2 0 0 0-74 72l1 1A94.8 94.8 0 0 0 71 198.5c1.6-1.8 2.1-3.6 1.5-5.5 1-.6 1.6-.3 2 1a118.1 118.1 0 0 0 0 9c1.8.3 2.1 1 1 2a74.2 74.2 0 0 1 4 12c-1.3 0-2.3 1-3 3l3 1c-1.3 1.6-1.2 3.1.5 4.5.4-2 1.2-3.6 2.5-5a28.5 28.5 0 0 0 6 9.5c2.5.1 4.5 1.1 6 3l-1 1a43.6 43.6 0 0 1 16 11c2.5.3 4.8 1 7 2a33.4 33.4 0 0 0 19.5 10.5 82.6 82.6 0 0 0 14.5 8.5l8 1 7 3.5a15 15 0 0 0-1 7c-.8 3.5-1.3 7.1-1.5 11a129.5 129.5 0 0 0-23.5-10.5c-30-14.1-53-35.6-69-64.5-.5-2.6-1.7-5-3.5-7a47 47 0 0 1-2.5-12c1-2.8.6-5.6-1-8.5.5-2 1.5-3.7 3-5l-3-2.5c1.3-1 1.3-2 0-3a7.2 7.2 0 0 1 2-2.5l-1-1a144 144 0 0 1 3-13l-1-1C81 114.4 109.2 82 151 60.5c47-22 96.5-28.8 148.5-20.5A208 208 0 0 1 409 96.5c22 24 34.8 51.4 38.5 82-2.3 1.7-2.3 3.5 0 5.5-.9 2-.9 4.4 0 7-2.6 1-2.6 2 0 2.5Z"/><path fill="#f2bed9" d="M348.5 268.5a49.8 49.8 0 0 0-3-9 87 87 0 0 0 33-16.5 16 16 0 0 0 15-8 20.6 20.6 0 0 1 6-2c4.3-5.2 9.7-8.8 16-11a8 8 0 0 0 2-5.5c4.4-.9 6.9-3.5 7.5-8a11.3 11.3 0 0 1 3.5-1.5c-.5-3.5.2-7 2-10.5-1-1.5-.6-2.8 1-4a3.6 3.6 0 0 0-1-1.5c1.6-1.8 2.4-4 2.5-6.5.9 1.2 1.7 1.2 2.5 0-1.7-1.8-2.7-4-3-6.5a59.1 59.1 0 0 1 1-8 84.8 84.8 0 0 1-1.5-10.5 11 11 0 0 0-3.5-7.5c1.2-2.7.5-5-2-7l1-1a1940.6 1940.6 0 0 0-8.5-18.5A176.3 176.3 0 0 0 316.5 53a250.1 250.1 0 0 0-121 0A175.6 175.6 0 0 0 91 127.5c-2.9 7.4-5.9 14.4-9 21-.7 1.3-.5 2.5.5 3.5-3.1 6-4.8 12.3-5 19l1 11.5c-1 0-1.6.5-2 1.5 1.3 0 2.3 1 3 3-3.8 1.2-4.7 3.3-2.5 6.5.5-1 .7-2 .5-3 2.4-.1 3.1.7 2 2.5 2 1 2.4 2.3 1 4a34 34 0 0 1 3 9l-1 1c1.3.3 2.4.8 3.5 1.5.6 4.5 3.1 7.1 7.5 8 .6 5.2 3.6 7.8 9 8a106.7 106.7 0 0 1 9 8.5 20.6 20.6 0 0 1 6 2c4 5.2 9.3 8 16 8.5a158.1 158.1 0 0 0 14 9.5 257.7 257.7 0 0 1 21 7.5 28.2 28.2 0 0 0-3 10l-7-3.5-8-1a82.6 82.6 0 0 1-14.5-8.5 33.4 33.4 0 0 1-19.5-10.5 22.5 22.5 0 0 0-7-2 43.6 43.6 0 0 0-16-11l1-1a7.8 7.8 0 0 0-6-3 28.5 28.5 0 0 1-6-9.5 9.9 9.9 0 0 0-2.5 5c-1.7-1.4-1.8-2.9-.5-4.5l-3-1c.7-2 1.7-3 3-3a74.2 74.2 0 0 0-4-12c1.1-1 .8-1.7-1-2a118.1 118.1 0 0 1 0-9c-.3-1.3-1-1.6-2-1 .6 1.9.1 3.7-1.5 5.5A94.8 94.8 0 0 1 81.5 136l-1-1c17.4-31.4 42-55.4 74-72 48-22 98-28 150-18a192.8 192.8 0 0 1 103 56.5c19.4 22 30.7 47.3 34 76-1.5 1-2 2.4-1.5 4 .6-2.1 1-2.3 1.5-.5a30 30 0 0 0 0 8 17.9 17.9 0 0 0-5 5 4 4 0 0 0 1 2 34 34 0 0 0-1.5 7.5c-2.4 2.5-3 5.4-1.5 8.5a12.2 12.2 0 0 0-3 5.5c1.3-.5 2.3.1 3 2a27.3 27.3 0 0 0-3.5 6 23 23 0 0 0-2-5c-2.2 1.1-2.7 2.6-1.5 4.5a14 14 0 0 1-9 6 463.4 463.4 0 0 0-17 14c-6 1.3-11 4.3-15 9-9.1 3.2-17.8 7.2-26 12-4.2.2-8.2 1-12 2.5Z"/><path fill="#f3c4de" d="M345.5 259.5a36 36 0 0 0-5-9 53209.8 53209.8 0 0 0 27-12.5 186.6 186.6 0 0 0 10.5-7.5 21 21 0 0 0 9.5-3.5 219.5 219.5 0 0 1 24.5-19.5l1-3a95.1 95.1 0 0 0 7.5-7.5c.6-1.6.6-3.5 0-5.5 3.3-.6 3.6-1.8 1-3.5 1-2.2 2.4-4.2 4-6a33.7 33.7 0 0 1 0-16l-2-10a4 4 0 0 1 1-2 48.6 48.6 0 0 1-4-7l2-1a550 550 0 0 0-9-15.5 3.6 3.6 0 0 1 1-1.5 56.6 56.6 0 0 1-11-15.5 578.4 578.4 0 0 0-20-20.5 5 5 0 0 0-3-.5c.2-1.3-.2-2.5-1-3.5a251.9 251.9 0 0 0-63-31 203.3 203.3 0 0 0-50-7c-1.2 1.8-2.4 1.7-3.5-.5l-5 1c-.7-2.7-1.3-2.7-2 0-.7-2.7-1.3-2.7-2 0-.7-2.7-1.3-2.7-2 0a10 10 0 0 1-5.5-2 281 281 0 0 0-72 15.5 204.7 204.7 0 0 0-32 17l-15 11c-.8 1-1.2 2.2-1 3.5a5 5 0 0 0-3 .5 148.1 148.1 0 0 0-31 41c.5.4.8 1 1 1.5a211.2 211.2 0 0 1-7 14.5 73 73 0 0 0 1 8l-2 4a4603.7 4603.7 0 0 0 2 18.5c2 1.6 2.3 3.5 1 5.5 1.8 2.5 3 5.3 3.5 8.5 3.1 2.5 5.5 5.5 7 9 9.7 6.3 18.9 13.5 27.5 21.5 2.8.2 5.5 1 8 2 4.6 4.3 10 7.3 16 9a53.6 53.6 0 0 0 23 10.5 48.4 48.4 0 0 0-5 10 257.7 257.7 0 0 0-21-7.5 158.1 158.1 0 0 1-14-9.5c-6.7-.5-12-3.3-16-8.5a20.6 20.6 0 0 0-6-2 106.7 106.7 0 0 0-9-8.5c-5.4-.2-8.4-2.8-9-8-4.4-.9-6.9-3.5-7.5-8a11.3 11.3 0 0 0-3.5-1.5l1-1a34 34 0 0 0-3-9c1.4-1.7 1-3-1-4 1.1-1.8.4-2.6-2-2.5a5 5 0 0 1-.5 3c-2.2-3.2-1.3-5.3 2.5-6.5-.7-2-1.7-3-3-3 .4-1 1-1.5 2-1.5a312.4 312.4 0 0 0-1-11.5c.2-6.7 2-13 5-19-1-1-1.2-2.2-.5-3.5 3.1-6.6 6.1-13.6 9-21A175 175 0 0 1 195.5 53c40.9-9.9 81.2-9.9 121 0C360 65 394.2 89 419 125.5a1940.6 1940.6 0 0 1 8.5 18.5l-1 1c2.5 2 3.2 4.3 2 7a11 11 0 0 1 3.5 7.5 84.8 84.8 0 0 0 1.5 10.5 59.1 59.1 0 0 0-1 8c.3 2.5 1.3 4.7 3 6.5-.8 1.2-1.6 1.2-2.5 0 0 2.5-.9 4.7-2.5 6.5.5.4.8 1 1 1.5-1.6 1.2-2 2.5-1 4a17 17 0 0 0-2 10.5 11.3 11.3 0 0 0-3.5 1.5c-.6 4.5-3.1 7.1-7.5 8 0 2-.6 4-2 5.5a35.6 35.6 0 0 0-16 11 20.6 20.6 0 0 0-6 2 16 16 0 0 1-15 8 86.5 86.5 0 0 1-33 16.5Z"/><path fill="#f5cbe4" d="M340.5 250.5a98.5 98.5 0 0 0-15-18c1 0 1.8.2 2.5 1a7 7 0 0 1 3.5-2.5c8.7-1 16.3-4.4 23-10 2.8-.8 5.5-1.1 8-1 6.6-5.6 13.6-10.6 21-15 2.9-5 7.2-7.8 13-8.5a47 47 0 0 0 5-6.5c2.7-2.5 5.4-5.9 8-10 1.2-2.9 1.2-5.7 0-8.5 2-1.7 2.4-3.7 1-6a6.8 6.8 0 0 1 3-1.5 12.4 12.4 0 0 1-1-9l-3-2.5a4.5 4.5 0 0 1 2-1.5 72.7 72.7 0 0 1-3-8 26 26 0 0 0-6-14l1-1A132.4 132.4 0 0 0 357 83.5l-9.5-6.5a312.6 312.6 0 0 0-20-8c-11.6-4-22.8-7.1-33.5-9.5-1.3.7-2.7.4-4-1-1.9 1.2-3.7.8-5.5-1-21-1.2-41.3-1.2-60.5 0l-1 2-3-1a131.6 131.6 0 0 0-14 5c-41 7.2-73.9 28.7-98.5 64.5.5.4.8 1 1 1.5a32.4 32.4 0 0 0-4 5.5l1 1a12 12 0 0 0-3 11c-2.6 1.9-3 3.7-1 5.5a41.6 41.6 0 0 0-4 11.5 6.8 6.8 0 0 1 3 1.5c1 3.5 1 6.8 0 10 1.4 4.7 3.7 8.8 7 12.5l3 1c-.6 2.6.6 4.4 3.5 5.5.5 1 .6 2 .5 3a13 13 0 0 1 13 7.5 57.4 57.4 0 0 1 18 13c3.4 2 7 3 11 3a42.3 42.3 0 0 0 24.5 10.5 12.5 12.5 0 0 0 5.5 3 74.7 74.7 0 0 0-13 16 53.6 53.6 0 0 1-23-10.5c-6-1.7-11.4-4.7-16-9a25.8 25.8 0 0 0-8-2c-8.6-8-17.8-15.2-27.5-21.5a22.8 22.8 0 0 0-7-9c-.6-3.2-1.7-6-3.5-8.5 1.3-2 1-3.9-1-5.5a4567.4 4567.4 0 0 1-2-18.5l2-4a73 73 0 0 1-1-8 211.2 211.2 0 0 0 7-14.5 3.6 3.6 0 0 0-1-1.5c7.9-15.4 18.2-29 31-41a5 5 0 0 1 3-.5c-.2-1.3.2-2.5 1-3.5l15-11a204.7 204.7 0 0 1 32-17 281 281 0 0 1 72-15.5c2 1.3 3.8 2 5.5 2 .7-2.7 1.3-2.7 2 0 .7-2.7 1.3-2.7 2 0 .7-2.7 1.3-2.7 2 0l5-1c1 2.2 2.3 2.3 3.5.5a201 201 0 0 1 50 7 251.9 251.9 0 0 1 63 31c.8 1 1.2 2.2 1 3.5a5 5 0 0 1 3 .5 578.4 578.4 0 0 1 20 20.5c2.9 5.9 6.5 11 11 15.5a3.6 3.6 0 0 0-1 1.5 550 550 0 0 1 9 15.5l-2 1a48.6 48.6 0 0 0 4 7 4 4 0 0 0-1 2l2 10a33.7 33.7 0 0 0 0 16 23.6 23.6 0 0 0-4 6c2.6 1.7 2.3 2.9-1 3.5.6 2 .6 3.9 0 5.5a95.1 95.1 0 0 1-7.5 7.5l-1 3a219.5 219.5 0 0 0-24.5 19.5c-2.9 2-6 3-9.5 3.5a186.6 186.6 0 0 1-10.5 7.5 53209.8 53209.8 0 0 1-27 12.5Z"/><path fill="#f6d2e9" d="M325.5 232.5a293.9 293.9 0 0 0-19-12c1 0 1.8-.2 2.5-1a4.5 4.5 0 0 0 1.5 2c-.4-1.4.4-2.4 2.5-3 1 .8 2.2.6 3.5-.5-1.2-1-1-1.7.5-2.5a4.5 4.5 0 0 0 1.5 2c1.3-1.8 2.8-2.1 4.5-1 1.1-1.9 2.4-2.6 4-2a6 6 0 0 0 4-4 14 14 0 0 0 14-6l5 1a14.5 14.5 0 0 0 4-5l1 1c2-3.2 4.8-4.7 8.5-4.5a37 37 0 0 1 14-11 864.8 864.8 0 0 0 8-9c5.7.4 6.7-1 3-4a9.9 9.9 0 0 1 8-5.5c.3-2.5 1.3-4.6 3-6.5-2.5-1.6-2.5-3 0-4.5-1.3-1-1.3-2 0-3a38.4 38.4 0 0 1-3-6.5l3-1c-.5-3.3-2.2-6.3-5-9l2-2a114.5 114.5 0 0 0-36-42.5 74 74 0 0 1-18.5-11l-1 1a385.7 385.7 0 0 0-16.5-8.5c-10.2-1.8-20-4.7-29.5-8.5l-1 1a12.4 12.4 0 0 0-9-1 202 202 0 0 0-23-3c-.7 1.3-1.3 1.3-2 0-.7 2.7-1.3 2.7-2 0h-4c-.7 2.7-1.3 2.7-2 0a352.1 352.1 0 0 0-24 3l-3-1c-31.8 5-60.3 17.4-85.5 37a407.6 407.6 0 0 0-16.5 18 347.1 347.1 0 0 0-8.5 15.5 4.5 4.5 0 0 1 2 1.5 13.8 13.8 0 0 0-4 9 4.5 4.5 0 0 0 2 1.5 53.6 53.6 0 0 1-3 6c1.3 1.3 1.3 2.7 0 4 2.5 1.2 2.5 2.5 0 4 2 1.7 3 3.9 3 6.5a10 10 0 0 1 8 5.5c-3.7 3-2.7 4.4 3 4a864.8 864.8 0 0 0 8 9l4 1a103.5 103.5 0 0 0 10 10l5 1c1.8 2.3 3.7 3.8 5.5 4.5l1-1c.7 4 1.3 4 2 0l1 4c3.2-.5 6 .7 8.5 3.5a50.7 50.7 0 0 1 10.5 3.5l1-1c.4 2.2 1.4 2.8 3 2a31.7 31.7 0 0 1 8 5c.7-2.7 1.3-2.7 2 0 2.5-.3 5 .3 7.5 2a4.5 4.5 0 0 0 1.5-2 3.3 3.3 0 0 0 3.5 2 120 120 0 0 0-21 14 12.5 12.5 0 0 1-5.5-3c-9-.7-17.2-4.2-24.5-10.5-4 0-7.6-1-11-3a57.4 57.4 0 0 0-18-13 13 13 0 0 0-13-7.5 5 5 0 0 0-.5-3c-3-1-4.1-2.9-3.5-5.5l-3-1a33.2 33.2 0 0 1-7-12.5c1-3.2 1-6.5 0-10a6.8 6.8 0 0 0-3-1.5 41.6 41.6 0 0 1 4-11.5c-2-1.8-1.6-3.6 1-5.5a12 12 0 0 1 3-11l-1-1a32.4 32.4 0 0 1 4-5.5 3.6 3.6 0 0 0-1-1.5A146.6 146.6 0 0 1 206 63.5a131.6 131.6 0 0 1 14-5l3 1 1-2c19.3-1.2 39.4-1.2 60.5 0 1.8 1.8 3.6 2.2 5.5 1 1.3 1.4 2.7 1.7 4 1 10.7 2.4 21.9 5.5 33.5 9.5a312.6 312.6 0 0 1 20 8l9.5 6.5a132 132 0 0 1 46.5 44.5l-1 1a26 26 0 0 1 6 14 72.7 72.7 0 0 0 3 8 4.5 4.5 0 0 0-2 1.5l3 2.5c-.8 2.7-.5 5.7 1 9a6.8 6.8 0 0 0-3 1.5c1.4 2.3 1 4.3-1 6 1.2 2.8 1.2 5.6 0 8.5a49.8 49.8 0 0 1-8 10 47 47 0 0 1-5 6.5c-5.8.7-10.1 3.5-13 8.5-7.4 4.4-14.4 9.4-21 15-2.5-.1-5.2.2-8 1-6.7 5.6-14.3 9-23 10a7 7 0 0 0-3.5 2.5c-.7-.8-1.5-1-2.5-1Z"/><path fill="#f7d8ee" d="M306.5 220.5a117.6 117.6 0 0 0-23-8c10.7-1.8 20-4.3 28-7.5a160 160 0 0 0 29-16 101.8 101.8 0 0 0 13-4c3.2-4.2 7.2-7.2 12-9a77.7 77.7 0 0 0 10-11c3 0 4-1.2 3-3.5a6 6 0 0 1 4-4.5l-1-1c2.8-1.8 3.5-4 2-7l2-4c-2-2-2.3-4.1-1-6.5a8.8 8.8 0 0 1-4-4.5 6.8 6.8 0 0 0 3-1.5 59.4 59.4 0 0 0-13-18.5c-2.2-3.8-5.7-7-10.5-9.5a8.4 8.4 0 0 1-.5-4c-2.2 0-4.2-.8-6-2a98.1 98.1 0 0 1-11-8 57.5 57.5 0 0 0-10-3.5c-1-2.4-2.5-3.2-4.5-2.5a175 175 0 0 1-12-5l-3 1-1-3c-2 .3-4-.3-6-2l-3 1a7 7 0 0 0-8-2c-.7-2.7-1.3-2.7-2 0l-1-2c-1.3.1-2.6.5-4 1l-1-2c-2.5.8-5.2 1.1-8 1a10.3 10.3 0 0 0-8.5-1 18 18 0 0 1-3.5-2l-1 2-5-2h-12c-.7 2.7-1.3 2.7-2 0-2 2-4.3 2.3-7 1-2.5 0-4.9.7-7 2l-1-2c-1 2.3-2.6 2.6-4.5 1-2.5 1.8-5 2.2-7.5 1-.7 2.7-1.3 2.7-2 0-.7 2.7-1.3 2.7-2 0l-1 2a47.2 47.2 0 0 0-7 0 46 46 0 0 1-15 6c-1-1.1-1.7-.8-2 1l-1-1a12 12 0 0 1-8.5 3.5c-2.6 3-6 4.7-10 5a69 69 0 0 1-20 11.5 8.4 8.4 0 0 1-.5 4 74.7 74.7 0 0 0-14.5 13 342.6 342.6 0 0 0-9 14.5c3.9 2.4 3.5 4.4-1 6 2.3 2.5 2 4.8-1 7l2 4c-.7 1.8-1 3.4-1 5 3.9 2 5.5 5 5 9a43.3 43.3 0 0 1 14 13l4 1a30 30 0 0 0 21 12c17 12.5 35.1 19.6 54.5 21.5a3.3 3.3 0 0 0 3.5 2 271 271 0 0 0-21 8c-1.6.1-2.8-.5-3.5-2a4.5 4.5 0 0 1-1.5 2c-2.5-1.7-5-2.3-7.5-2-.7-2.7-1.3-2.7-2 0a31.7 31.7 0 0 0-8-5c-1.6.8-2.6.2-3-2l-1 1a50.7 50.7 0 0 0-10.5-3.5c-2.4-2.8-5.3-4-8.5-3.5l-1-4c-.7 4-1.3 4-2 0l-1 1c-1.8-.7-3.7-2.2-5.5-4.5l-5-1a103.5 103.5 0 0 1-10-10l-4-1a864.8 864.8 0 0 1-8-9c-5.7.4-6.7-1-3-4a10 10 0 0 0-8-5.5c0-2.6-1-4.8-3-6.5 2.5-1.5 2.5-2.8 0-4 1.3-1.3 1.3-2.7 0-4a53.6 53.6 0 0 0 3-6 4.5 4.5 0 0 1-2-1.5c.1-3.2 1.4-6.2 4-9a4.5 4.5 0 0 0-2-1.5 347.1 347.1 0 0 1 8.5-15.5 407.6 407.6 0 0 1 16.5-18c25.2-19.6 53.7-32 85.5-37l3 1a352.1 352.1 0 0 1 24-3c.7 2.7 1.3 2.7 2 0h4c.7 2.7 1.3 2.7 2 0 .7 1.3 1.3 1.3 2 0a202 202 0 0 1 23 3c2.7-.8 5.7-.5 9 1l1-1c9.5 3.8 19.3 6.7 29.5 8.5a385.7 385.7 0 0 1 16.5 8.5l1-1a74 74 0 0 0 18.5 11 114.5 114.5 0 0 1 36 42.5l-2 2c2.8 2.7 4.5 5.7 5 9l-3 1c.7 2 1.7 4.2 3 6.5-1.3 1-1.3 2 0 3-2.5 1.4-2.5 3 0 4.5-1.7 1.9-2.7 4-3 6.5a9.9 9.9 0 0 0-8 5.5c3.7 3 2.7 4.4-3 4a864.8 864.8 0 0 1-8 9 37 37 0 0 0-14 11 8.8 8.8 0 0 0-8.5 4.5l-1-1a14.5 14.5 0 0 1-4 5l-5-1a14.2 14.2 0 0 1-14 6 6 6 0 0 1-4 4c-1.6-.6-2.9.1-4 2-1.7-1.1-3.2-.8-4.5 1a4.5 4.5 0 0 1-1.5-2c-1.5.8-1.7 1.6-.5 2.5-1.3 1.1-2.4 1.3-3.5.5-2 .6-2.9 1.6-2.5 3a4.5 4.5 0 0 1-1.5-2c-.7.8-1.5 1-2.5 1Z"/><path fill="#f7dbf1" d="M283.5 212.5c-18.3-4-36.7-4-55 0-1.6.1-2.8-.5-3.5-2-19.4-1.9-37.6-9-54.5-21.5a30 30 0 0 1-21-12l-4-1a43.3 43.3 0 0 0-14-13c.5-4-1.1-7-5-9 0-1.6.3-3.2 1-5l-2-4c3-2.2 3.3-4.5 1-7 4.5-1.6 4.9-3.6 1-6a342.6 342.6 0 0 1 9-14.5c4.2-4.9 9-9.2 14.5-13a8.4 8.4 0 0 0 .5-4c7.2-2.7 14-6.6 20-11.5 4-.3 7.4-2 10-5a12 12 0 0 0 8.5-3.5l1 1c.3-1.8 1-2.1 2-1a46 46 0 0 0 15-6 47.2 47.2 0 0 1 7 0l1-2c.7 2.7 1.3 2.7 2 0 .7 2.7 1.3 2.7 2 0 2.5 1.2 5 .8 7.5-1 2 1.6 3.4 1.3 4.5-1l1 2c2.1-1.3 4.5-2 7-2 2.7 1.3 5 1 7-1 .7 2.7 1.3 2.7 2 0h12l5 2 1-2a18 18 0 0 0 3.5 2c3-.9 5.7-.6 8.5 1 2.8.1 5.5-.2 8-1l1 2c1.4-.6 2.7-.9 4-1l1 2c.7-2.7 1.3-2.7 2 0a7 7 0 0 1 8 2l3-1c2 1.7 4 2.3 6 2l1 3 3-1a175 175 0 0 0 12 5c2-.7 3.5.1 4.5 2.5a57.5 57.5 0 0 1 10 3.5 98.1 98.1 0 0 0 11 8c1.8 1.2 3.8 2 6 2a8.4 8.4 0 0 0 .5 4c4.8 2.5 8.3 5.7 10.5 9.5 5.2 4.9 9.5 11 13 18.5a6.8 6.8 0 0 1-3 1.5c.8 2 2.1 3.5 4 4.5-1.3 2.4-1 4.5 1 6.5l-2 4c1.5 3 .8 5.2-2 7l1 1a6 6 0 0 0-4 4.5c1 2.3 0 3.5-3 3.5a77.7 77.7 0 0 1-10 11 26.3 26.3 0 0 0-12 9 101.8 101.8 0 0 1-13 4 160 160 0 0 1-29 16c-8 3.2-17.3 5.7-28 7.5Z"/><path fill="#f9dff4" d="M344.5 172.5c.4-5.5-.2-10.9-2-16a2.4 2.4 0 0 0 2-.5 71.8 71.8 0 0 0 11-13.5 7 7 0 0 0 6-4.5l-2-2c1.3-2 .6-3.4-2-4 3.3-2.8 3.6-5.8 1-9 .8-1.7.3-1.8-1.5-.5-.5-2.3-1.1-4.6-2-7-1.6.8-2.6.2-3-2-.7 1.3-1.3 1.3-2 0-.3-1.7.2-3.2 1.5-4.5a5 5 0 0 1-3.5-2.5l-1 1a5 5 0 0 1-.5-3 5 5 0 0 1-3-.5 148 148 0 0 0-24-13.5c-1.3 1.4-2.2 1-2.5-1-1 1.1-1.7.8-2-1l-1 2c-.7-2.5-2-3.5-4-3l-5-3-1 1a34 34 0 0 0-7.5-1.5c-.8-3.1-2-3.3-3.5-.5-2-2.2-4.4-2.6-7-1a7 7 0 0 0-4.5-2 545.9 545.9 0 0 1-18.5 0c-.9-2-2.2-2-4 0a27 27 0 0 0-12 0l-1-2c-2 2.1-4.4 2.5-7 1l-10 2-1-2c-1.3 2.8-2.7 3-4 1a7.3 7.3 0 0 0-2 3c-.7-4-1.3-4-2 0-1.6-1.2-3-.9-4 1a19 19 0 0 1-7-1c-.3 1.8-1 2.1-2 1a28 28 0 0 1-6 3l-1-1a14.8 14.8 0 0 1-3.5 4c-1.7-1.5-2.8-1.2-3.5 1-1.8-.4-3.5-.4-5 0a82.3 82.3 0 0 0-10 7c-1-1.1-1.7-.8-2 1-1-2.4-1.6-2.1-1.5 1-6 1.7-11 5-15 10 2 1.3 2.1 2.7.5 4l-1-1c-1 3.7-1.6 3.4-2-1-.2 2.2-1 4-2.5 5.5 1 1 1.2 2.2.5 3.5l-1-2-1 4-1-2c-2 3.8-1.5 7.3 1.5 10.5a7.3 7.3 0 0 0-3 2c.7 2 .8 4.3.5 6.5a54.6 54.6 0 0 1 4.5 2 87.8 87.8 0 0 0 10 12c-1.4 2-2.1 4.4-2 7-.7 0-1 .3-1 1-1 2.8-1.3 5.8-1 9a18.5 18.5 0 0 1-6-.5l-11-13a20.2 20.2 0 0 1-6-1.5l2-3a121.2 121.2 0 0 0-7-13c2-2.7 2.4-5.5 1-8.5a24.3 24.3 0 0 1 3.5-3.5 27 27 0 0 1 8-13c.1-3.6 2-6 5.5-7 1-1.2 1.3-2.5 1-4 1.8 0 3.5-.5 5-1.5a447.2 447.2 0 0 1 12-8.5 113.2 113.2 0 0 0 18.5-9l1 1c2.7-1.9 5.6-2.6 8.5-2a14 14 0 0 1 5.5-4c1.6.6 3.3.3 5-1 .7 1.3 1.3 1.3 2 0l1 2c2.6-1.3 4.6-3.3 6-6 1 3.7 2.7 4 5 1 3.7.5 7.6.5 11.5 0a5 5 0 0 0 .5 3 5.9 5.9 0 0 1 3-4c1.5.4 3 .8 4.5 1a203 203 0 0 1 15.5-5l1 2h8a6.8 6.8 0 0 0 1.5 3 71.7 71.7 0 0 0 7.5-1l1 2c3.2-1.8 6.2-1.8 9 0l5-1 1 2c2.4-.5 5-.5 8 0 1.3 1.4 2.7 1.7 4 1 4 .3 7.4 2 10 5 3.2-.8 6.2 0 9 2l1-1a111.8 111.8 0 0 0 18.5 9 128.8 128.8 0 0 1 12 8.5c1.5 1 3.2 1.5 5 1.5-.2 3.4 1.5 5.4 5 6 1.4 4.6 3.9 8.6 7.5 12a10 10 0 0 0 5 8l-.5 6.5 3 3a130.6 130.6 0 0 0-8 13.5l2 3a20.2 20.2 0 0 1-6 1.5l-11 13c-4.4-.4-7.9 1.1-10.5 4.5a5 5 0 0 1-.5-3Z"/><path fill="#f9e3f7" d="M342.5 156.5a22.7 22.7 0 0 0-22-16 31 31 0 0 0 5-4.5l-1-3a28.4 28.4 0 0 0 4.5-7.5c2 2.5 3 2.4 2.5-.5a25.5 25.5 0 0 0 4-4.5 7.2 7.2 0 0 0-2-2.5c1.2-1 1-1.7-.5-2.5-1 1.1-1.7.8-2-1l-1 2a12.4 12.4 0 0 0-2.5-4c-1.6 1-2.4.4-2.5-2-.9-1.6-1.9-2-3-1a22.8 22.8 0 0 0-4-5c-1.6-.6-2.9.1-4 2a18.6 18.6 0 0 0-3.5-6.5l1-1c-1.6-.2-3.1-1-4.5-2.5l-3 1c-.7-2.7-1.3-2.7-2 0-.7-1.3-1.3-1.3-2 0a7.3 7.3 0 0 0-2-3c-1.3.1-2.6.5-4 1l-1-2a4.3 4.3 0 0 1-2.5 3 32 32 0 0 0-2.5-4l-11 1c-.7-2.7-1.3-2.7-2 0-1.3-2.7-2.7-2.7-4 0-.7-2.7-1.3-2.7-2 0l-3-3c-.7 1.3-1.3 1.3-2 0-2 3.5-3.3 3.5-4 0a6.8 6.8 0 0 1-1.5 3c.2-1.2-.3-2.5-1.5-4-1.2 1.5-1.7 2.8-1.5 4-1.1-3.9-2-3.9-2.5 0-.7-2.7-1.3-2.7-2 0l-3-4-2 2h-4l-3 3c0-1.2 0-2.2-.5-3a6.8 6.8 0 0 0-1.5 3c-.7-1.3-1.3-1.3-2 0-.9-3.3-2.2-3.6-4-1-1.8-2.6-3.1-2.3-4 1-.7-2.7-1.3-2.7-2 0-.7-2.7-1.3-2.7-2 0l-5-1c-1 3.2-2.3 3.5-4 1l-2 2c-1.4-.6-2.7-.9-4-1a7.3 7.3 0 0 0-2 3c-.7-2.7-1.3-2.7-2 0-.7-1-1.6-1.1-2.5-.5-.7 2-1.7 4-3 6 2.4.8 2.2 1.6-.5 2.5a7.3 7.3 0 0 1-2-3 19 19 0 0 1-3 5l-1-2a23 23 0 0 0-2 5c-1-2.4-1.6-2.1-1.5 1a6.8 6.8 0 0 1-4-1 4.5 4.5 0 0 0-2 1.5c1.6 2.7 1 3.6-1.5 2.5a24.3 24.3 0 0 0-3.5 3.5 8.3 8.3 0 0 0 5.5 7.5c1.7 6 5 9 10 9 .7-4 1.3-4 2 0l1-3c1.4 4.3 3.1 4.6 5 1a6.5 6.5 0 0 0 3 3 35.2 35.2 0 0 1 4.5-1l1 .5c-3.5 3.1-3 5 1.5 5.5a14.5 14.5 0 0 0 4-5 7.2 7.2 0 0 0 2.5 2 14.7 14.7 0 0 0 1.5-5 32.4 32.4 0 0 0 1.5 6c-1 1.6-.5 3 1.5 4a6.9 6.9 0 0 0 3-5l1 4 1-2c2.2.2 4.2 1.6 6 4l2-2 3 3c.7-2.4 1.7-2.4 3 0 1-2.4 1.6-2 2 1 .7-2.4 1.7-2.4 3 0 1.5-2.3 3.1-2.3 5 0 1.5-2.3 3.1-2.3 5 0l2-2a8.9 8.9 0 0 0 3 4l4-4c.7 2.7 1.3 2.7 2 0l2 2c2.3-.2 4.3-1.6 6-4a8.9 8.9 0 0 0 3 4c2.2-1.4 3.2-3 3-5 1 1.1 1.7.8 2-1l1 2 3-3 1 2c.7-5.3 1.3-5.3 2 0l1-3c1.8 1 3.4.6 5-1-.2 2 .8 3.6 3 5l2.5-2.5c.6-1.6-.1-2.9-2-4 2.3.8 4.2 0 5.5-2.5.5 1.2 1.3 2 2.5 2.5-2.4 3.2-2 6 1.5 8.5 2.8-2.7 4.5-5.7 5-9 1.1 1 2.1.6 3-1a9.5 9.5 0 0 0 2.5 1.5c.6 1.6-.1 2.9-2 4a2.4 2.4 0 0 0 2 .5 21.5 21.5 0 0 0-13 20.5c.1 4 .8 7.8 2 11.5a20.7 20.7 0 0 1 1 5 8 8 0 0 0-6.5 3c-1.6-.6-2.9.1-4 2-1.4-.6-2.7-.9-4-1a7.9 7.9 0 0 0-2 4c-.7-5.3-1.3-5.3-2 0-.7-2.7-1.3-2.7-2 0-.7-4-1.3-4-2 0-1.4-1.3-2.4-1-3 1-.7-2.7-1.3-2.7-2 0-1.3-2.7-2.7-2.7-4 0-2-1.2-4-.9-6 1-1.5-2.3-3.1-2.3-5 0l-1-2-4 3a141.8 141.8 0 0 0-14-1c-2.8 3-4.1 2.3-4-2l-1 5a10.3 10.3 0 0 0-1.5-4l-1 .5c1 1 1.2 2.2.5 3.5l-3-6-1 2c-.7-1.3-1.3-1.3-2 0-.7-2.7-1.3-2.7-2 0-.7-1.3-1.3-1.3-2 0-.7-2.7-1.3-2.7-2 0-1.4-2-3-2.4-5-1-.7-2.7-1.3-2.7-2 0a7.3 7.3 0 0 1-2-3l-1 2-2-4-1 2c-1-1.3-2-1.3-3 0-1.1-1.9-2.4-2.6-4-2-.9-1.6-1.9-2-3-1a8.4 8.4 0 0 0-5.5-2.5 7 7 0 0 1-2-2.5 40 40 0 0 0 .5-23c-10-14.3-20.7-14.6-32-1a28.2 28.2 0 0 1-1.5 4 87.8 87.8 0 0 1-10-12 54.6 54.6 0 0 0-4.5-2c.3-2.2.2-4.4-.5-6.5a7.3 7.3 0 0 1 3-2c-3-3.2-3.5-6.7-1.5-10.5l1 2 1-4 1 2c.7-1.3.5-2.5-.5-3.5a8.4 8.4 0 0 0 2.5-5.5c.4 4.4 1 4.7 2 1l1 1c1.6-1.3 1.5-2.7-.5-4 4-5 9-8.3 15-10 0-3.1.4-3.4 1.5-1 .3-1.8 1-2.1 2-1a82.3 82.3 0 0 1 10-7c1.5-.4 3.2-.4 5 0 .7-2.2 1.8-2.5 3.5-1a14.8 14.8 0 0 0 3.5-4l1 1c2-.7 4-1.7 6-3 1 1.1 1.7.8 2-1a19 19 0 0 0 7 1c1-1.9 2.4-2.2 4-1 .7-4 1.3-4 2 0a7.3 7.3 0 0 1 2-3c1.3 2 2.7 1.8 4-1l1 2 10-2c2.6 1.5 5 1.1 7-1l1 2a27 27 0 0 1 12 0c1.8-2 3.1-2 4 0a545.9 545.9 0 0 0 18.5 0 7 7 0 0 1 4.5 2c2.6-1.6 5-1.2 7 1 1.5-2.8 2.7-2.6 3.5.5 2.6.2 5 .7 7.5 1.5l1-1 5 3c2-.5 3.3.5 4 3l1-2c.3 1.8 1 2.1 2 1 .3 2 1.2 2.4 2.5 1a148 148 0 0 1 24 13.5 5 5 0 0 0 3 .5 5 5 0 0 0 .5 3l1-1a5 5 0 0 0 3.5 2.5 5.1 5.1 0 0 0-1.5 4.5c.7 1.3 1.3 1.3 2 0 .4 2.2 1.4 2.8 3 2 .9 2.4 1.5 4.7 2 7 1.8-1.3 2.3-1.2 1.5.5 2.6 3.2 2.3 6.2-1 9 2.6.6 3.3 2 2 4l2 2a7 7 0 0 1-6 4.5 71.8 71.8 0 0 1-11 13.5 2.4 2.4 0 0 1-2 .5Z"/><path fill="#fae7fa" d="M320.5 140.5h-1a2.4 2.4 0 0 1-2-.5c1.9-1.1 2.6-2.4 2-4a9.5 9.5 0 0 1-2.5-1.5c-.9 1.6-1.9 2-3 1-.5 3.3-2.2 6.3-5 9-3.4-2.5-4-5.3-1.5-8.5-1.2-.5-2-1.3-2.5-2.5-1.3 2.4-3.2 3.3-5.5 2.5 1.9 1.1 2.6 2.4 2 4l-2.5 2.5c-2.2-1.4-3.2-3-3-5-1.6 1.6-3.2 2-5 1l-1 3c-.7-5.3-1.3-5.3-2 0l-1-2-3 3-1-2c-.3 1.8-1 2.1-2 1 .2 2-.8 3.6-3 5a8.9 8.9 0 0 1-3-4c-1.7 2.4-3.7 3.8-6 4l-2-2c-.7 2.7-1.3 2.7-2 0l-4 4a8.9 8.9 0 0 1-3-4l-2 2c-1.9-2.3-3.5-2.3-5 0-1.9-2.3-3.5-2.3-5 0-1.3-2.4-2.3-2.4-3 0-.4-3-1-3.4-2-1-1.3-2.4-2.3-2.4-3 0l-3-3-2 2c-1.8-2.4-3.8-3.8-6-4l-1 2-1-4a6.9 6.9 0 0 1-3 5c-2-1-2.5-2.4-1.5-4a32.4 32.4 0 0 1-1.5-6 14.7 14.7 0 0 1-1.5 5 7.2 7.2 0 0 1-2.5-2 14.5 14.5 0 0 1-4 5c-4.5-.6-5-2.4-1.5-5.5l-1-.5a35.2 35.2 0 0 0-4.5 1 6.5 6.5 0 0 1-3-3c-1.9 3.6-3.6 3.3-5-1l-1 3c-.7-4-1.3-4-2 0-5 0-8.3-3-10-9a8.3 8.3 0 0 1-5.5-7.5 24.3 24.3 0 0 1 3.5-3.5c2.6 1 3 .2 1.5-2.5a4.5 4.5 0 0 1 2-1.5 6.8 6.8 0 0 0 4 1c0-3.1.4-3.4 1.5-1a23 23 0 0 1 2-5l1 2a19 19 0 0 0 3-5 7.3 7.3 0 0 0 2 3c2.7-.9 2.9-1.7.5-2.5 1.3-2 2.3-4 3-6 1-.6 1.8-.5 2.5.5.7-2.7 1.3-2.7 2 0a7.3 7.3 0 0 1 2-3c1.3.1 2.6.5 4 1l2-2c1.7 2.5 3 2.2 4-1l5 1c.7-2.7 1.3-2.7 2 0 .7-2.7 1.3-2.7 2 0 .9-3.3 2.2-3.6 4-1 1.8-2.6 3.1-2.3 4 1 .7-1.3 1.3-1.3 2 0a6.8 6.8 0 0 1 1.5-3c.4.8.6 1.8.5 3l3-3h4l2-2 3 4c.7-2.7 1.3-2.7 2 0 .6-3.9 1.4-3.9 2.5 0-.2-1.2.3-2.5 1.5-4 1.2 1.5 1.7 2.8 1.5 4a6.8 6.8 0 0 0 1.5-3c.7 3.5 2 3.5 4 0 .7 1.3 1.3 1.3 2 0l3 3c.7-2.7 1.3-2.7 2 0 1.3-2.7 2.7-2.7 4 0 .7-2.7 1.3-2.7 2 0l11-1a32 32 0 0 1 2.5 4 4.3 4.3 0 0 0 2.5-3l1 2c1.4-.6 2.7-.9 4-1a7.3 7.3 0 0 1 2 3c.7-1.3 1.3-1.3 2 0 .7-2.7 1.3-2.7 2 0l3-1a7.8 7.8 0 0 0 4.5 2.5l-1 1a18.6 18.6 0 0 1 3.5 6.5c1.1-1.9 2.4-2.6 4-2a22.8 22.8 0 0 1 4 5c1.1-1 2.1-.6 3 1 0 2.4.9 3 2.5 2a12.4 12.4 0 0 1 2.5 4l1-2c.3 1.8 1 2.1 2 1 1.5.8 1.7 1.6.5 2.5a7.2 7.2 0 0 1 2 2.5 25.5 25.5 0 0 1-4 4.5c.4 2.9-.4 3-2.5.5a28.4 28.4 0 0 1-4.5 7.5l1 3a31 31 0 0 1-5 4.5Z"/><path fill="#d65380" d="M12.5 182.5c.7 1.1 1 2.5 1 4a229.7 229.7 0 0 0 14.5 157A247 247 0 0 0 184.5 472c83 21.6 159.7 7 230-44 77.1-64.1 105-145.6 83.5-244.5.4 1.3 1.3 2 2.5 2 5.5 17.7 9.1 35.7 11 54v7a8.8 8.8 0 0 1-1.5-4 1091 1091 0 0 1-6 51 242.7 242.7 0 0 0-8 34c-31.4 74.4-86 123.9-163.5 148.5a271.6 271.6 0 0 1-217-28A286.7 286.7 0 0 1 46 383.5a8.4 8.4 0 0 1-.5-4 3 3 0 0 1-3-1c-16.5-27-28.3-56-35.5-87l-4-29a40 40 0 0 1 .5-15c-.5-1.8-1.5-3-3-4 .2-1.3-.1-2.3-1-3v-1a226.6 226.6 0 0 1 13-57Z"/><path fill="#da5f8b" d="M459.5 113.5a187.6 187.6 0 0 1 23 33c-1 0-1.8-.2-2.5-1l-.5 2a2545.7 2545.7 0 0 1 12.5 34 863.8 863.8 0 0 0 8 37c2.9 26.2 1.6 52.2-4 78a65284.3 65284.3 0 0 0-11 34c-36.4 77.4-97 124.9-181.5 142.5C209 488 128.8 460.5 63 390.5 4.3 315.7-5.8 234.9 32.5 148a11.4 11.4 0 0 1-1.5-3.5c-.4.6-.9.9-1.5 1a184.9 184.9 0 0 1 18-27 6.8 6.8 0 0 0 1 4 1204.6 1204.6 0 0 0-13.5 24c-38 86-27.7 166.7 31 242a261.8 261.8 0 0 0 165 85h49c23.5-3.5 46.6-9.3 69.5-17.5a256.7 256.7 0 0 0 96.5-68.5c56-71.3 67.4-149 34-233a478.2 478.2 0 0 1-20.5-41Z"/><path fill="#cf4d7a" d="M511.5 246.5v24c-1.3.3-1.3.7 0 1v2a226 226 0 0 1-59.5 133 1126.9 1126.9 0 0 1-2.5 66 13 13 0 0 0-1.5 5l-1-2-3 14c-.4 2-1.2 3.7-2.5 5a106.4 106.4 0 0 0 3-19c3.8-19.1 4.8-38.5 3-58v-2c.8-2 1.4-4 1.5-6a519.1 519.1 0 0 1-19.5 19 26.7 26.7 0 0 0-7 5 322.3 322.3 0 0 1-45 29 32.5 32.5 0 0 0-7 3 409 409 0 0 0-6 3h-1a32.5 32.5 0 0 0-7 3 5.7 5.7 0 0 1-3 1 14850.3 14850.3 0 0 0-8 3c-7.7 1.4-7.7 3.6 0 6.5 1.3.8 2 2 2 3.5a31 31 0 0 0-16.5-5 559.6 559.6 0 0 1-32.5 7 207.8 207.8 0 0 1-43 3 207.8 207.8 0 0 1-43-3 389.3 389.3 0 0 1-33-7 11 11 0 0 0-6.5-2 34 34 0 0 0-11.5 4.5 96.6 96.6 0 0 1-16 21 23 23 0 0 1-5 2 1122 1122 0 0 1-67 0 29 29 0 0 1-8-7.5 85.4 85.4 0 0 1-2-8c.6-.1 1.1-.4 1.5-1a42.4 42.4 0 0 1 5 10 14 14 0 0 0 6.5 4.5 257 257 0 0 0 55 0 45.1 45.1 0 0 0 21.5-11.5 433 433 0 0 1 12.5-16.5c-2-1.5-4.4-2.4-7-2.5-1.4-1-3.1-1.7-5-2-2-1.8-4.3-2.8-7-3a18.7 18.7 0 0 0-7-3 12.8 12.8 0 0 0-6-3 348 348 0 0 1-47-30 16.6 16.6 0 0 0-6-5 39.9 39.9 0 0 0-8-7 64 64 0 0 0-14-13 322 322 0 0 1-41.5-65 233.7 233.7 0 0 1-17.5-73v-26h1c1.5 1 2.5 2.2 3 4a40 40 0 0 0-.5 15l4 29c7.2 31 19 60 35.5 87a3 3 0 0 0 3 1 8.4 8.4 0 0 0 .5 4 286.7 286.7 0 0 0 69.5 64.5 271.6 271.6 0 0 0 217 28c77.6-24.6 132-74.1 163.5-148.5a242.7 242.7 0 0 1 8-34 1091 1091 0 0 0 6-51c.2 1.6.7 2.9 1.5 4Z"/><path fill="#e1749d" d="M404.5 71.5c23.3 16.8 42 37.5 56 62a3 3 0 0 0 3 1 506.7 506.7 0 0 1 16.5 39 259.7 259.7 0 0 1 9 41 216.4 216.4 0 0 1-56 174c-53.8 54.9-119.3 79.7-196.5 74.5C153.2 455.6 90 416.4 47 345.5 13.2 278.2 12 210.7 43.5 143a956 956 0 0 1 18-24.5 5.7 5.7 0 0 1-1 3c.1.6.4 1.1 1 1.5-4.7 5-8 11-10 17.5-1.6-.2-3 .3-4 1.5l2 1A186.6 186.6 0 0 0 38 169.5c-22.8 73.8-10.8 141.4 36 203a23 23 0 0 0 2 5 442.3 442.3 0 0 0 24.5 25.5c45 36.4 96.7 54.9 155 55.5 70.6-1 129.8-27 177.5-78 2.2-2.2 3.6-4.9 4-8a235.2 235.2 0 0 0 23-34c32-65.6 32.6-131 1.5-196.5v-4a11.3 11.3 0 0 1-3.5-1.5 35 35 0 0 0-6.5-12 3.6 3.6 0 0 1 1-1.5 11.5 11.5 0 0 1-4.5-3.5 173 173 0 0 0-43.5-45v-3Z"/><path fill="#e47ea7" d="M451.5 129.5a347.4 347.4 0 0 1 12.5 22c13 30.2 19.1 61.2 18.5 93a213.1 213.1 0 0 1-91 167 249 249 0 0 1-161 39.5 238 238 0 0 1-134-58c-61-61.3-80.6-133.8-58.5-217.5a160.3 160.3 0 0 1 20.5-44 833.9 833.9 0 0 0-16 35c.2.6.5 1 1 1.5a151 151 0 0 0-9.5 35.5c-3.3 27.8-1.8 56 4.5 84.5a208.9 208.9 0 0 0 121 140c75.6 29.9 149 25.2 220-14a208.8 208.8 0 0 0 93-125.5 215.4 215.4 0 0 0-21-159Z"/><path fill="#e684ac" d="M86.5 97.5a260.5 260.5 0 0 1-11.5 16 212 212 0 0 1-9.5 19 105.6 105.6 0 0 0-11 18.5 249.9 249.9 0 0 0-8.5 23.5 1640 1640 0 0 1-6.5 27.5c.8 2.5 1.1 5.2 1 8l-2 5c2.6 1.5 2.2 2.3-1 2.5-2.7 70 22 128 74 174a430.9 430.9 0 0 0 48 28.5 259 259 0 0 0 192 0 375.3 375.3 0 0 0 23-12 321.2 321.2 0 0 0 28-19c44.6-40.6 68.6-91 72-151.5-.7-30.1-6.9-59.5-18.5-88-3.8-7.3-7.6-14-11.5-20a162.8 162.8 0 0 0-20-32c6.9 2.4 11.4 7 13.5 14 5.1 5.8 9.6 11.8 13.5 18a215.4 215.4 0 0 1 21 159 208.8 208.8 0 0 1-93 125.5c-71 39.2-144.4 43.9-220 14a208.9 208.9 0 0 1-121-140 249.6 249.6 0 0 1-4.5-84.5 151 151 0 0 1 9.5-35.5 3.6 3.6 0 0 1-1-1.5 833.9 833.9 0 0 1 16-35 103.7 103.7 0 0 0 5.5-10 129.6 129.6 0 0 0 13.5-17 62.3 62.3 0 0 1 9-7Z"/><path fill="#e98cb2" d="M444.5 129.5c3.9 6 7.7 12.7 11.5 20a247.8 247.8 0 0 1 18.5 88 213.7 213.7 0 0 1-72 151.5 321.2 321.2 0 0 1-28 19 375.3 375.3 0 0 1-23 12 259 259 0 0 1-192 0 430.9 430.9 0 0 1-48-28.5c-52-46-76.7-104-74-174 3.2-.2 3.6-1 1-2.5l2-5c.1-2.8-.2-5.5-1-8a1640 1640 0 0 0 6.5-27.5 249.9 249.9 0 0 1 8.5-23.5 105.6 105.6 0 0 1 11-18.5c-.4 4.5-1.4 8.9-3 13-1 0-1.8.2-2.5 1-2.4 4.9-4.4 9.5-6 14a41 41 0 0 0-.5 9c-1.7 2-2.8 4.3-3.5 7a120.2 120.2 0 0 1-4.5 17.5c-.5 5.1-.5 10.1 0 15a41.2 41.2 0 0 0-3 11 44 44 0 0 1 0 14.5 255 255 0 0 0 9.5 52 644.5 644.5 0 0 1 10 27l3 3a487.1 487.1 0 0 0 14.5 26 151.3 151.3 0 0 1 15.5 20 352.6 352.6 0 0 1 24 21l1-1a11.5 11.5 0 0 0 3.5 4.5 37 37 0 0 1 12.5 7.5l1-1a117.2 117.2 0 0 1 10 7l1-1c2 2.4 4 4 6 5l1-1a38 38 0 0 0 12 7c1-1.1 1.7-.8 2 1 1-1.1 1.7-.8 2 1 2-.3 4 .3 6 2l1-1c1.1 2.4 2.8 3 5 2 2.9 1.7 5.5 3 8 4 1.8-1 3.4-.6 5 1 9 .7 18.2 1.9 27.5 3.5 10.7.7 21.4 1.6 32 2.5 11-1 22-1.8 33-2.5a222.8 222.8 0 0 0 28.5-5.5l3 1c.3-1.8 1-2.1 2-1a35.6 35.6 0 0 0 6-3l1 1c2.4-2.4 5.4-4 9-5h4c.3-1.8 1-2.1 2-1a353.5 353.5 0 0 0 34-19l1 1a8.4 8.4 0 0 1 7.5-4.5l29.5-25.5a106.4 106.4 0 0 1 15-19 297 297 0 0 0 26-50 481.4 481.4 0 0 0 10.5-45.5 226 226 0 0 0-7.5-75.5 118.7 118.7 0 0 0-5.5-12.5l1-1a44.5 44.5 0 0 0-6-9.5 168 168 0 0 0-5-20Z"/><path fill="#161516" d="M185.5 143.5c2.7.2 5 1.2 7 3-.5 0-.9.4-1 1 3.9 11 1.5 20.6-7 28.5-6.9 3.1-12.4 1.6-16.5-4.5a547.5 547.5 0 0 0-2.5-9 24 24 0 0 1 3-9c0 4.5.2 9.1.5 14l2.5 5c11.8 3 18.2-1.5 19-13.5.7-6.6-1.6-11.6-7-15a2.4 2.4 0 0 1 2-.5Z"/><path fill="#ec98bd" d="M62.5 145.5a116.3 116.3 0 0 0-2 15 185 185 0 0 1-7 30.5c.6 1.3.6 2.8 0 4.5a5 5 0 0 0 2 3.5 73 73 0 0 0-3 15.5c-1 4.3-1.3 8.4-1 12.5a272 272 0 0 0 7.5 45.5 36.2 36.2 0 0 1 4 7l4.5 15a7.3 7.3 0 0 1 2.5 2c1.1 5 3.1 9.8 6 14a19 19 0 0 0 6 6 23.7 23.7 0 0 0 2.5 6 82.3 82.3 0 0 1 13.5 14c.5 1 .7 2 .5 3 3-.3 4.8 1 5.5 4l1-1a7 7 0 0 0 4.5 3.5c1.3.7 1.3 1.3 0 2a45.7 45.7 0 0 1 8.5 7.5h4a7 7 0 0 0 2.5 3.5 20.6 20.6 0 0 1 6 2 22 22 0 0 0 9 6 149.4 149.4 0 0 0 22 7c7.8 4.3 15.2 8.6 22 13 1.4.4 2.7.9 4 1.5a24.2 24.2 0 0 0 5.5-1c.9 1.6 1.9 2 3 1 3.6 1.4 7.1 2.4 10.5 3 5.9.6 11.7 1.2 17.5 2 .7-1.3 1.3-1.3 2 0l1-2c1.3 2.7 2.7 3 4 1a18 18 0 0 0 3.5 2c14.2 0 28.9 0 44-.5l26-2.5 8.5-3c1.7 1.4 3 1 4-1l7 1a122.2 122.2 0 0 0 23.5-13.5 403.8 403.8 0 0 0 24-8 144.5 144.5 0 0 1 18-11c1-.6 1.8-.5 2.5.5a45.3 45.3 0 0 1 8.5-7.5c-1-1.1-.6-2.1 1-3 3.4-1 6-3 8-6a5 5 0 0 1 3-.5c3.2-7 8-12.7 14.5-17 1.9-5.1 4.9-9.4 9-13a780 780 0 0 0 17-39 312.8 312.8 0 0 0 6-41l1.5-1.5a84 84 0 0 0-2-14.5 49 49 0 0 0-2-11.5 48 48 0 0 0-.5-19.5 29.5 29.5 0 0 0-2.5-4.5l1-1a38 38 0 0 1-3-8.5 113.7 113.7 0 0 0-1-15 178.4 178.4 0 0 1 15 69.5 37.1 37.1 0 0 0-2 4.5c.3 1.2.8 1.2 1.5 0l.5 2a79.3 79.3 0 0 0-3 12.5c1 1.4 1.2 2.9.5 4.5l-1-2a77.2 77.2 0 0 1-3.5 19.5c.8 1.5 1 3 .5 4.5l-1-2a155.9 155.9 0 0 1-32.5 68c-.8 3.2-2.5 5.8-5 8a404.9 404.9 0 0 1-26 24.5c-6 2.7-11.3 6.3-16 11-4.7.7-8.5 3-11.5 6.5l-1-2c-1 2.6-2.6 4.6-5 6l-1-1c-1.7 2-3.3 3.4-5 4-1-2.4-1.6-2-2 1-1-2.4-1.6-2-2 1-1-1-2.2-1.2-3.5-.5a39 39 0 0 0-4.5 4.5c-2-1.3-3.4-.6-4 2l-1-2a16.7 16.7 0 0 1-4 4l-1-1-5 3-1-1a722.7 722.7 0 0 1-22 7 5.9 5.9 0 0 0-5.5-.5c-3.3.3-6 1.5-8.5 3.5a4 4 0 0 0-2-1 209.2 209.2 0 0 1-86-4 6.3 6.3 0 0 0-3 1 410.4 410.4 0 0 1-18-7 3.6 3.6 0 0 1-1.5 1 15 15 0 0 0-3.5-3l-1 1-3-4a7.3 7.3 0 0 0-2 3c-.3-1.8-1-2.1-2-1a9.5 9.5 0 0 0-2.5-1.5c-1-2.3-2.4-4.2-4.5-5.5l-2 2a98.2 98.2 0 0 1-17.5-11.5c-7.6-2-14-6-19-12a32.5 32.5 0 0 0-7-3 915.7 915.7 0 0 1-26-24.5 215.1 215.1 0 0 1-33.5-60c0-5-1.6-9.5-4.5-13.5a7 7 0 0 0-1.5-8.5 165.3 165.3 0 0 0-5.5-31.5c1.2-9.3 1.7-18.4 1.5-27.5a14.4 14.4 0 0 1 2.5-5.5 35.2 35.2 0 0 1-1-4.5 199.3 199.3 0 0 0 5-22 41 41 0 0 1 .5-9c1.6-4.5 3.6-9.1 6-14 .7-.8 1.5-1 2.5-1Z"/><path fill="#eea0c3" d="M60.5 160.5v21a106.6 106.6 0 0 0-3 13.5 54.3 54.3 0 0 0 1 10l-2 8c1.4 6.8 2.4 13.4 3 20a11.5 11.5 0 0 1-1 2.5 431 431 0 0 0 7.5 28l1-2 1 6a138 138 0 0 1 11 23c2.7 2.8 3.7 2.5 3-1a32.6 32.6 0 0 0 7.5 9 263.3 263.3 0 0 0 91 44.5 417.2 417.2 0 0 0 44 8.5c22.8 5.6 45.4 5.3 68-1a275.4 275.4 0 0 0 129-51.5 46.3 46.3 0 0 0 7.5-9.5c-1 4.9 0 5.2 3 1a171.3 171.3 0 0 1 12.5-25l-1-2c.3-1.2.8-1.2 1.5 0a104.1 104.1 0 0 1 4.5-15.5 4 4 0 0 0-1-2 119.8 119.8 0 0 0 4-11c-1.3-2.2-1-4.2 1-6a3.6 3.6 0 0 1-1-1.5c2-10 2-20 0-30l1-2a142 142 0 0 0-3-15v-5c1-2.1 1.3-4.4 1-7a38 38 0 0 0 3 8.5l-1 1a29.5 29.5 0 0 1 2.5 4.5 48 48 0 0 1 .5 19.5 49 49 0 0 1 2 11.5 41.7 41.7 0 0 0-2 6 49.9 49.9 0 0 1 1 5.5c-1.8 9.5-3.3 19.3-4.5 29.5a132 132 0 0 1-21 46 26 26 0 0 1-13.5 16.5 86 86 0 0 1-33 24.5 74 74 0 0 1-7 7.5 305 305 0 0 1-207 14 287.3 287.3 0 0 1-40-15 37.2 37.2 0 0 0-20.5-13.5 261 261 0 0 0-28-25 9039.7 9039.7 0 0 0-13-25 7.3 7.3 0 0 0-2.5-2 335.2 335.2 0 0 1-11-35 10.3 10.3 0 0 0 1-3 236 236 0 0 1-4-22.5 68 68 0 0 0 1-6.5c-.5-.8-1.1-1.1-2-1a73 73 0 0 1 3-15.5 5 5 0 0 1-2-3.5c.6-1.7.6-3.2 0-4.5a185 185 0 0 0 7-30.5Z"/><path fill="#d79fbf" d="M163.5 161.5a7 7 0 0 0 1 4 38.5 38.5 0 0 0 2 13c-1 0-1.8-.2-2.5-1a50.5 50.5 0 0 1-1.5-15c0-.7.3-1 1-1Z"/><path fill="#0c0b0c" d="M324.5 143.5a18.4 18.4 0 0 1 15.5 13 43 43 0 0 1 .5 20c-4.5 10.1-11.9 12.6-22 7.5a44 44 0 0 1-8-11.5c-3.4-9-2.4-17.3 3-25 .5 0 .9.4 1 1-4.7 11.2-2 20 8 26.5 4.3 1.2 7.8 0 10.5-3.5 1.5-5.3 1.7-10.6.5-16-.1-1.5-.8-2.5-2-3-1.4-4-4.1-6.7-8-8.5.2-.4.6-.6 1-.5Z"/><path fill="#eb93b8" d="M449.5 149.5a48 48 0 0 1 6 9.5l-1 1a118.7 118.7 0 0 1 5.5 12.5 226 226 0 0 1 7.5 75.5 481.4 481.4 0 0 1-10.5 45.5 297 297 0 0 1-26 50 106.4 106.4 0 0 0-15 19 4024.4 4024.4 0 0 1-29.5 25.5 8.4 8.4 0 0 0-7.5 4.5l-1-1a353.5 353.5 0 0 1-34 19c-1-1.1-1.7-.8-2 1h-4c-3.6 1-6.6 2.6-9 5l-1-1a35.6 35.6 0 0 1-6 3c-1-1.1-1.7-.8-2 1l-3-1a222.8 222.8 0 0 1-28.5 5.5c-11 .7-22 1.5-33 2.5a1532.5 1532.5 0 0 0-32-2.5c-9.3-1.6-18.5-2.8-27.5-3.5-1.6-1.6-3.2-2-5-1-2.5-1-5.1-2.3-8-4-2.2 1-3.9.4-5-2l-1 1c-2-1.7-4-2.3-6-2-.3-1.8-1-2.1-2-1-.3-1.8-1-2.1-2-1a38 38 0 0 1-12-7l-1 1c-2-1-4-2.6-6-5l-1 1a117.2 117.2 0 0 0-10-7l-1 1a37 37 0 0 0-12.5-7.5 11.5 11.5 0 0 1-3.5-4.5l-1 1a352.6 352.6 0 0 0-24-21 151.3 151.3 0 0 0-15.5-20 487.1 487.1 0 0 1-14.5-26l-3-3a644.5 644.5 0 0 0-10-27 255 255 0 0 1-9.5-52c.8-5 .8-9.8 0-14.5a41.2 41.2 0 0 1 3-11c-.5-4.9-.5-9.9 0-15a120.2 120.2 0 0 0 4.5-17.5c.7-2.7 1.8-5 3.5-7a199.3 199.3 0 0 1-5 22 35.2 35.2 0 0 0 1 4.5 14.4 14.4 0 0 0-2.5 5.5c.2 9-.3 18.2-1.5 27.5a165.3 165.3 0 0 1 5.5 31.5c2.4 2.5 3 5.4 1.5 8.5 3 4 4.4 8.5 4.5 13.5 8 21.8 19.1 41.8 33.5 60a915.7 915.7 0 0 0 26 24.5 32.5 32.5 0 0 1 7 3c5 6 11.4 10 19 12a98.2 98.2 0 0 0 17.5 11.5l2-2c2 1.3 3.6 3.2 4.5 5.5 1 .4 1.8.9 2.5 1.5 1-1.1 1.7-.8 2 1a7.3 7.3 0 0 1 2-3l3 4 1-1a15 15 0 0 1 3.5 3 3.6 3.6 0 0 0 1.5-1 410.4 410.4 0 0 0 18 7 6.3 6.3 0 0 1 3-1c27.7 7.3 56.3 8.6 86 4a4 4 0 0 1 2 1 15 15 0 0 1 8.5-3.5 6 6 0 0 1 5.5.5 722.7 722.7 0 0 0 22-7l1 1 5-3 1 1a16.7 16.7 0 0 0 4-4l1 2c.6-2.6 2-3.3 4-2a39 39 0 0 1 4.5-4.5c1.3-.7 2.5-.5 3.5.5.4-3 1-3.4 2-1 .4-3 1-3.4 2-1 1.7-.6 3.3-2 5-4l1 1c2.4-1.4 4-3.4 5-6l1 2a18 18 0 0 1 11.5-6.5c4.7-4.7 10-8.3 16-11a404.9 404.9 0 0 0 26-24.5c2.5-2.2 4.2-4.8 5-8a155.9 155.9 0 0 0 32.5-68l1 2c.5-1.5.3-3-.5-4.5a77.2 77.2 0 0 0 3.5-19.5l1 2c.7-1.6.6-3.1-.5-4.5.6-4.1 1.6-8.3 3-12.5l-.5-2c-.7 1.2-1.2 1.2-1.5 0a37.1 37.1 0 0 1 2-4.5c-.3-24.2-5.3-47.4-15-69.5-1-1-1.3-2.4-1-4Z"/><path fill="#ed9bc0" d="M458.5 213.5a84 84 0 0 1 2 14.5l-1.5 1.5a312.8 312.8 0 0 1-6 41 780 780 0 0 1-17 39 31.2 31.2 0 0 0-9 13 39.8 39.8 0 0 0-14.5 17 5 5 0 0 0-3 .5c-2 3-4.6 5-8 6-1.6.9-2 1.9-1 3a45.3 45.3 0 0 0-8.5 7.5c-.7-1-1.6-1.1-2.5-.5a144.5 144.5 0 0 0-18 11 403.8 403.8 0 0 1-24 8 122.2 122.2 0 0 1-23.5 13.5l-7-1c-1 2-2.3 2.4-4 1a1333.8 1333.8 0 0 1-8.5 3l-26 2.5c-15.1.4-29.8.6-44 .5a18 18 0 0 1-3.5-2c-1.3 2-2.7 1.7-4-1l-1 2c-.7-1.3-1.3-1.3-2 0a420.2 420.2 0 0 0-17.5-2c-3.4-.6-6.9-1.6-10.5-3-1.1 1-2.1.6-3-1-1.7.5-3.6.9-5.5 1a29 29 0 0 0-4-1.5c-6.8-4.4-14.2-8.7-22-13a149.4 149.4 0 0 1-22-7 22 22 0 0 1-9-6 20.6 20.6 0 0 0-6-2 7 7 0 0 1-2.5-3.5h-4a45.7 45.7 0 0 0-8.5-7.5c1.3-.7 1.3-1.3 0-2-2-.6-3.5-1.7-4.5-3.5l-1 1c-.7-3-2.5-4.3-5.5-4a5 5 0 0 0-.5-3 82.3 82.3 0 0 0-13.5-14 23.7 23.7 0 0 1-2.5-6 18.8 18.8 0 0 1-6-6c-2.9-4.2-4.9-9-6-14a7.3 7.3 0 0 0-2.5-2 28449.8 28449.8 0 0 1-4.5-15 36.2 36.2 0 0 0-4-7 272 272 0 0 1-7.5-45.5c-.3-4 0-8.2 1-12.5.9-.1 1.5.2 2 1a67.9 67.9 0 0 1-1 6.5 236 236 0 0 0 4 22.5 10.3 10.3 0 0 1-1 3 335.2 335.2 0 0 0 11 35 7.3 7.3 0 0 1 2.5 2 9039.7 9039.7 0 0 1 13 25 261 261 0 0 1 28 25c8 2 15 6.5 20.5 13.5a287.3 287.3 0 0 0 40 15 305 305 0 0 0 207-14 74 74 0 0 0 7-7.5 86 86 0 0 0 33-24.5 26 26 0 0 0 13.5-16.5 132 132 0 0 0 21-46c1.2-10.2 2.7-20 4.5-29.5a49.9 49.9 0 0 0-1-5.5 41.7 41.7 0 0 1 2-6Z"/><path fill="#efb2ce" d="M316.5 336.5a2.4 2.4 0 0 1 2 .5l-3 3a338.7 338.7 0 0 1-23 10.5 132.4 132.4 0 0 1-68 1 170 170 0 0 1-21-9.5 5 5 0 0 1 3-.5 113.5 113.5 0 0 0 110-5Z"/><path fill="#da5f8b" d="m325.5 328.5-9 8a113.5 113.5 0 0 1-110 5 68.5 68.5 0 0 1-18-13 2.4 2.4 0 0 1 .5-2h136c.5.6.6 1.3.5 2Z"/><path fill="#dc6692" d="M337.5 314.5c-3 5.6-7 10.2-12 14a2.4 2.4 0 0 0-.5-2H189a2.4 2.4 0 0 0-.5 2 59 59 0 0 1-13-16 3246.3 3246.3 0 0 1 161 0l1 2Z"/><path fill="#de6e98" d="M344.5 299.5c.1 1.8-.2 3.5-1 5-1.5 3.7-3.5 7-6 10a43.8 43.8 0 0 0-1-2 3246.3 3246.3 0 0 0-161 0 25.1 25.1 0 0 1-5-8 20.7 20.7 0 0 1-1-5 3829.6 3829.6 0 0 1 175 0Z"/><path fill="#e58ca9" d="M283.5 212.5a117.6 117.6 0 0 1 23 8 293.9 293.9 0 0 1 19 12 98.5 98.5 0 0 1 15 18 36 36 0 0 1 5 9 49.8 49.8 0 0 1 3 9 60.7 60.7 0 0 1 2 18 118 118 0 0 0-3 15 7 7 0 0 0-2 3h-2a9.2 9.2 0 0 0 1-5c2.2-3.6 3.2-7.6 3-12a128.5 128.5 0 0 0-.5-16 23 23 0 0 0-2.5-6 20 20 0 0 0-1.5-6 1077.3 1077.3 0 0 0-5.5-9 54.9 54.9 0 0 0-17-18c-6-5-12.6-9-20-12a121.5 121.5 0 0 0-20-6 130.2 130.2 0 0 0-24.5-2 82 82 0 0 0-20.5 2c-11.9 1-22.6 5-32 12a38.7 38.7 0 0 0-15 11 43.3 43.3 0 0 0-16 21c-3.2 4.8-4.9 10-5 16a43.5 43.5 0 0 0 2 25 20.7 20.7 0 0 0 1 5h-2a86 86 0 0 0-3-9 114.3 114.3 0 0 1-1-18 15 15 0 0 1 1-7 28.2 28.2 0 0 1 3-10 48.4 48.4 0 0 1 5-10 74.7 74.7 0 0 1 13-16 120 120 0 0 1 21-14 271 271 0 0 1 21-8c18.3-4 36.7-4 55 0Z"/><path fill="#e076a0" d="M167.5 274.5h11c.7 4.9 1.7 5 3 .5 9.3-.5 18.7-.7 28-.5-.3 1.6 0 3 1 4a21 21 0 0 0 4 12 8.1 8.1 0 0 0 8 4c4.6.2 7.6-1.8 9-6a30.8 30.8 0 0 1 4.5-3c15.6.6 31.5.6 47.5 0 3.6 7.1 9.3 10 17 8.5 3-1.7 5.3-4 7-7a11.3 11.3 0 0 0 3.5-1.5c11 1.3 22 1.3 33 0a18.5 18.5 0 0 0 3.5 2c.2 4.4-.8 8.4-3 12a3829.6 3829.6 0 0 0-175 0 43.5 43.5 0 0 1-2-25Z"/><path fill="#f6a6c1" d="M231.5 288.5c-1.4 4.2-4.4 6.2-9 6a8.1 8.1 0 0 1-8-4 74.8 74.8 0 0 1 7.5 3 26.6 26.6 0 0 0 9.5-5Z"/><path fill="#e27fa8" d="M302.5 258.5c7.3-.2 14.7 0 22 .5a58 58 0 0 1 10.5 12.5 10.1 10.1 0 0 0 1.5-6h8a20 20 0 0 1 2.5 6c.5 5.3.7 10.7.5 16a18.5 18.5 0 0 1-3.5-2c-11 1.3-22 1.3-33 0a11.3 11.3 0 0 1-3.5 1.5c-1.7 3-4 5.3-7 7-7.7 1.5-13.4-1.4-17-8.5a647.4 647.4 0 0 1-47.5 0 30.8 30.8 0 0 0-4.5 3 35.7 35.7 0 0 0 4-18 547.3 547.3 0 0 1 46.5 1c.3-1 .8-1.6 1.5-2v9c.9 8 5.2 13 13 15a16.6 16.6 0 0 0 12-14c1.5-8.2-.5-15.2-6-21Z"/><path fill="#d15b7d" d="M308.5 279.5a16.6 16.6 0 0 1-12 14 16 16 0 0 1-13-15c.3-5.7 2.2-11 5.5-16 5.8-4.4 11-3.8 15.5 2 2.2 4.9 3.5 9.9 4 15Z"/><path fill="#d15a7d" d="M234.5 269.5c.7 0 1 .3 1 1a35 35 0 0 1-4 18 26.6 26.6 0 0 1-9.5 5 74.8 74.8 0 0 0-7.5-3 20.8 20.8 0 0 1-4-12 19.4 19.4 0 0 1 8-18 8.7 8.7 0 0 1 7-.5c4.4 3 7.3 7.3 8.5 12.5a5 5 0 0 0 .5-3Z"/><path fill="#92334b" d="M302.5 258.5a22.8 22.8 0 0 1 6 21 47.2 47.2 0 0 0-4-15c-4.5-5.8-9.7-6.4-15.5-2-3.3 5-5.2 10.3-5.5 16v-9c2.5-10.7 8.8-14.4 19-11Z"/><path fill="#903149" d="M234.5 269.5a5 5 0 0 1-.5 3c-1.2-5.2-4-9.4-8.5-12.5a8.7 8.7 0 0 0-7 .5 19.4 19.4 0 0 0-8 18c-1-1-1.3-2.4-1-4-.4-8 3-13.9 10-17.5 8.4-.1 13.4 4 15 12.5Z"/><path fill="#e489b0" d="m337.5 250.5 5.5 9a20 20 0 0 1 1.5 6h-8a10.1 10.1 0 0 1-1.5 6 58 58 0 0 0-10.5-12.5 242.4 242.4 0 0 0-22-.5c-10.2-3.4-16.5.3-19 11-.7.4-1.2 1-1.5 2a547.3 547.3 0 0 0-46.5-1c0-.7-.3-1-1-1-1.6-8.4-6.6-12.6-15-12.5-7 3.6-10.4 9.4-10 17.5-9.3-.2-18.7 0-28 .5-1.3 4.5-2.3 4.4-3-.5h-11c.1-6 1.8-11.2 5-16h7a21.1 21.1 0 0 0 1 9 50.4 50.4 0 0 1 18.5-17h116a57.7 57.7 0 0 1 19 17c1-1.3 1.5-2.8 1.5-4.5a223.3 223.3 0 0 1-3-11.5c2 .3 3.6 0 5-1Z"/><path fill="#eba4c5" d="M203.5 226.5a394.8 394.8 0 0 1-14.5 18 8.4 8.4 0 0 0-.5 4l18-10a24.5 24.5 0 0 1-7 6.5c-6.5 2.5-11 7-13.5 13.5a14 14 0 0 1-4 3 26 26 0 0 1 1-10 3.3 3.3 0 0 1 3.5-2 24 24 0 0 1 3-9 10 10 0 0 0-1-3 38 38 0 0 1 15-11Z"/><path fill="#ecaac9" d="M300.5 220.5c7.4 3 14 7 20 12a65 65 0 0 0 8.5 15 20 20 0 0 1 2 11 70.6 70.6 0 0 1-9.5-10.5 127 127 0 0 1-22-14.5 73.3 73.3 0 0 1 25 15l1-1.5a981.7 981.7 0 0 1-3.5-7.5 1705.3 1705.3 0 0 0-21.5-19Z"/><path fill="#e794ba" d="M279.5 225.5a87.4 87.4 0 0 1 20 8 127 127 0 0 0 22 14.5 70.6 70.6 0 0 0 9.5 10.5 20 20 0 0 0-2-11 65 65 0 0 1-8.5-15c7 4.7 12.7 10.7 17 18-1.4 1-3 1.3-5 1a223.3 223.3 0 0 0 3 11.5c0 1.7-.5 3.2-1.5 4.5a57.7 57.7 0 0 0-19-17H199a50.4 50.4 0 0 0-18.5 17 21.1 21.1 0 0 1-1-9h-7a43.3 43.3 0 0 1 16-21c.5 1 .8 2 1 3a24 24 0 0 0-3 9c-1.6-.1-2.8.5-3.5 2a26 26 0 0 0-1 10 14 14 0 0 0 4-3c2.5-6.5 7-11 13.5-13.5 2.8-1.7 5.1-4 7-6.5 4.8-3 9.8-5.7 15-8.5a63.7 63.7 0 0 0 15-4 185.6 185.6 0 0 1 43-.5Z"/><path fill="#f0bbd6" d="M280.5 214.5a121.5 121.5 0 0 1 20 6 1705.3 1705.3 0 0 1 21.5 19l3.5 7.5-1 1.5a73.3 73.3 0 0 0-25-15 87.4 87.4 0 0 0-20-8 47.1 47.1 0 0 1 16 4 153 153 0 0 1 19.5 9c.7-.7.7-1.3 0-2-10-9.8-21.5-17-34.5-22Z"/><path fill="#f4cde0" d="M280.5 214.5c13 5 24.5 12.2 34.5 22 .7.7.7 1.3 0 2a153 153 0 0 0-19.5-9 19.5 19.5 0 0 1 7.5 1c1.6-.6 1.4-1.4-.5-2.5a79.8 79.8 0 0 0-73.5-9.5 75.8 75.8 0 0 0-18.5 11.5 79.8 79.8 0 0 0 9-1.5 147.2 147.2 0 0 1-21 9.5 61.1 61.1 0 0 1 16-14 140 140 0 0 1 21-9.5 130.2 130.2 0 0 1 45 0Z"/><path fill="#f0bad5" d="M235.5 214.5c-7.1 2.6-14.1 5.7-21 9.5a61.1 61.1 0 0 0-16 14 147.2 147.2 0 0 0 21-9.5c17.6-5.3 35.6-7.1 54-5.5a23 23 0 0 1 6 2.5 185.6 185.6 0 0 0-43 .5 63.7 63.7 0 0 1-15 4 313.5 313.5 0 0 0-15 8.5l-18 10a8.4 8.4 0 0 1 .5-4 394.8 394.8 0 0 0 14.5-18c9.4-7 20.1-11 32-12Z"/><path fill="#f7dcea" d="M295.5 229.5a47.1 47.1 0 0 0-16-4 20 20 0 0 0-6-2.5c-18.4-1.6-36.4.2-54 5.5a79.8 79.8 0 0 1-9 1.5 75.8 75.8 0 0 1 18.5-11.5 79.8 79.8 0 0 1 73.5 9.5c1.9 1 2 1.9.5 2.5a19.5 19.5 0 0 0-7.5-1Z"/><path fill="#f0b0d1" d="M440.5 214.5c-.4 2.8-.4 5.4 0 8a43.3 43.3 0 0 1-3 5.5c.2.9.6 1.7 1 2.5-3.8 5.7-6.3 12-7.5 19-24 24-51.9 41.3-83.5 52a118 118 0 0 1 3-15 549.8 549.8 0 0 0 21-8.5c29.6-14 52.6-35.2 69-63.5Zm-370-1c16 28.9 39 50.4 69 64.5a129.5 129.5 0 0 1 23.5 10.5c.2-3.9.7-7.5 1.5-11-.1 6 .2 12 1 18a24 24 0 0 1 0 8 270.4 270.4 0 0 1-82-49.5 361.3 361.3 0 0 0-6-11.5l1-2c-3.3-4-5.2-8.7-5.5-14a10.8 10.8 0 0 1-2.5-3c.5-3.2.5-6.6 0-10Z"/><path fill="#f0aacc" d="M63.5 194.5h1a47 47 0 0 0 2.5 12c1.8 2 3 4.4 3.5 7 .5 3.4.5 6.8 0 10a10.8 10.8 0 0 0 2.5 3c.3 5.3 2.2 10 5.5 14l-1 2a361.3 361.3 0 0 1 6 11.5 270.4 270.4 0 0 0 82 49.5 24 24 0 0 0 0-8 86 86 0 0 1 3 9c2.9 7.4 7 14.1 12.5 20 .5 1 .6 2 .5 3a250.5 250.5 0 0 1-93.5-46 5970.2 5970.2 0 0 0-10-12l-1-5a165.6 165.6 0 0 0-6-11 674.4 674.4 0 0 0-4-14 4084.3 4084.3 0 0 0-4.5-31c1-4.5 1.2-9.2 1-14Zm384 0 1 24.5c-2 2.8-2.6 5.8-2 9-.8 4.6-2.1 9.3-4 14a4 4 0 0 1 1 2 162.5 162.5 0 0 1-9.5 20.5l-1 6a60.4 60.4 0 0 0-10.5 12 271.3 271.3 0 0 1-90 44.5 108.1 108.1 0 0 0 13-22.5 7 7 0 0 1 2-3c31.6-10.7 59.4-28 83.5-52 1.2-7 3.7-13.3 7.5-19a11.5 11.5 0 0 1-1-2.5 43.3 43.3 0 0 0 3-5.5c-.4-2.6-.4-5.2 0-8a8345.7 8345.7 0 0 0 7-20Z"/><path fill="#eea5c7" d="M450.5 180.5a142 142 0 0 1 3 15l-1 2c2 10 2 20 0 30a3.6 3.6 0 0 0 1 1.5c-2 1.8-2.3 3.8-1 6a119.8 119.8 0 0 1-4 11 4 4 0 0 1 1 2 104.1 104.1 0 0 0-4.5 15.5c-.7-1.2-1.2-1.2-1.5 0l1 2a171.3 171.3 0 0 0-12.5 25c-3 4.2-4 3.9-3-1a46.3 46.3 0 0 1-7.5 9.5 275.4 275.4 0 0 1-129 51.5 338.7 338.7 0 0 0 23-10.5l3-3a2.4 2.4 0 0 0-2-.5l9-8c5-3.8 9-8.4 12-14 2.5-3 4.5-6.3 6-10h2a108.1 108.1 0 0 1-13 22.5c32.7-9.2 62.7-24 90-44.5a60.4 60.4 0 0 1 10.5-12l1-6a162.5 162.5 0 0 0 9.5-20.5 4 4 0 0 0-1-2c1.9-4.7 3.2-9.4 4-14-.6-3.2 0-6.2 2-9l-1-24.5v-1a317 317 0 0 1 3-13Zm-390 1a68.7 68.7 0 0 1 3 13c.2 4.8 0 9.5-1 14a4084.3 4084.3 0 0 1 4.5 31 674.4 674.4 0 0 1 4 14 165.6 165.6 0 0 1 6 11l1 5 10 12c28 21.9 59 37.2 93.5 46a5 5 0 0 0-.5-3 62.6 62.6 0 0 1-12.5-20h2a25.1 25.1 0 0 0 5 8 59 59 0 0 0 13 16 68.5 68.5 0 0 0 18 13 5 5 0 0 0-3 .5 170 170 0 0 0 21 9.5 417.2 417.2 0 0 1-44-8.5c-33.4-9-63.7-23.9-91-44.5a32.6 32.6 0 0 1-7.5-9c.7 3.5-.3 3.8-3 1a138 138 0 0 0-11-23l-1-6-1 2a431 431 0 0 1-7.5-28 11.5 11.5 0 0 0 1-2.5c-.6-6.6-1.6-13.2-3-20l2-8a54.3 54.3 0 0 1-1-10c.7-4.6 1.7-9.1 3-13.5Z"/><path fill="#090809" d="M192.5 146.5a25 25 0 0 1 2 30c-4.9 9-12.2 11.9-22 8.5a53.9 53.9 0 0 1-6-6.5 38.5 38.5 0 0 1-2-13c.9-.7 1.2-1.7 1-3a547.5 547.5 0 0 1 2.5 9c4.1 6.1 9.6 7.6 16.5 4.5 8.5-8 10.9-17.4 7-28.5.1-.6.5-1 1-1Z"/><path fill="#353234" d="M324.5 143.5c-.4 0-.8.1-1 .5 3.9 1.8 6.6 4.6 8 8.5 1.2.5 1.9 1.5 2 3 1.2 5.4 1 10.7-.5 16a9.1 9.1 0 0 1-10.5 3.5c-10-6.5-12.7-15.3-8-26.5-.1-.6-.5-1-1-1 2.9-4 6.6-5.3 11-4Z"/><path fill="#3e3a3c" d="M185.5 143.5a2.4 2.4 0 0 0-2 .5c5.4 3.4 7.7 8.4 7 15-.8 12-7.2 16.5-19 13.5l-2.5-5a337.8 337.8 0 0 1-.5-14c3.6-7.3 9.3-10.6 17-10Z"/><path fill="#767575" d="M178.5 147.5c7.4-.4 10.4 3 9 10.5.8 7.2-2.4 11.7-9.5 13.5-1.7 0-3-.6-4-2a19.1 19.1 0 0 1 4.5-22Z"/><path fill="#a09e9f" d="M180.5 148.5a9 9 0 0 1 5.5 3 17 17 0 0 1-4.5 17c-6 2.2-8.6 0-8-6.5a13 13 0 0 1 7-13.5Z"/><path fill="#c6c5c6" d="M180.5 151.5a7 7 0 0 1 2.5 2c.8 4 .7 8-.5 12a8.8 8.8 0 0 1-7 2 72.4 72.4 0 0 1 .5-12 86 86 0 0 1 4.5-4Z"/><path fill="#c37fa4" d="M319.5 140.5h1c10.8.4 18.1 5.8 22 16a39.3 39.3 0 0 1 2 16c-1 1.6-2.3 3-4 4a43 43 0 0 0-.5-20 18.4 18.4 0 0 0-15.5-13c-4.4-1.3-8.1 0-11 4-5.4 7.7-6.4 16-3 25h-2a40.4 40.4 0 0 1-2-11.5c.2-9.7 4.5-16.5 13-20.5Z"/><path fill="#626162" d="M331.5 152.5a45.5 45.5 0 0 1 .5 15c-2.6 5.1-6.4 6.3-11.5 3.5-5-6.7-6.3-14.2-4-22.5 2-2.7 4.8-3.5 8-2.5a63.7 63.7 0 0 0 7 6.5Z"/><path fill="#908d8f" d="M319.5 148.5c2.4 0 4.8.5 7 1.5a11 11 0 0 0 4.5 6.5c1.1 4.9.3 9.4-2.5 13.5a12.5 12.5 0 0 1-7 0 22 22 0 0 1-4.5-19.5 10 10 0 0 0 2.5-2Z"/><path fill="#c9c8c8" d="M321.5 150.5c6.6 3.2 8.8 8.6 6.5 16-.4 1-1 1.6-2 2-2.6-1-4.6-2.6-6-5-1-4.6-.5-9 1.5-13Z"/><path fill="#c17ca2" d="m198.5 174.5-4 2a25 25 0 0 0-2-30c-2-1.8-4.3-2.8-7-3-7.7-.6-13.4 2.7-17 10a24 24 0 0 0-3 9c.2 1.3-.1 2.3-1 3a7 7 0 0 1-1-4c-.1-2.6.6-5 2-7a28.2 28.2 0 0 0 1.5-4c11.3-13.6 22-13.3 32 1a40 40 0 0 1-.5 23Z"/><path fill="#eca9cb" d="M429.5 428.5c1 .8 1.2 1.8.5 3-4.2 2.6-4.5 5.6-1 9 2 10.6 1 21-3 31a32 32 0 0 1-16.5 9.5c-10 .7-20 .7-30 0a25 25 0 0 1-11-4.5 11.6 11.6 0 0 1-4-8 409 409 0 0 1 6-3c.3 2.8 1.3 5.3 3 7.5a66.8 66.8 0 0 0 13.5 5.5 906.4 906.4 0 0 1 22 0 33.1 33.1 0 0 0 15-12 60 60 0 0 0 1-18c-.6-3-2.1-5.5-4.5-7.5a18.5 18.5 0 0 0 2-3.5c2.5-1.5 2.5-2.8 0-4a26.7 26.7 0 0 1 7-5Z"/><path fill="#edb0d2" d="M86.5 432.5a348 348 0 0 0 47 30c.8 9-3.2 14.5-12 16.5a122.6 122.6 0 0 1-30 1c-14.2-3.9-21.2-13.2-21-28a14.6 14.6 0 0 1 7-15 13 13 0 0 1 5-.5 6.8 6.8 0 0 0-1-4c1.6-1 3.3-1 5 0Z"/><path fill="#e99cc1" d="M447.5 415.5a25.6 25.6 0 0 1-6 6c-1 1.6-2.3 3-4 4-6.8 3.5-8.3 8.5-4.5 15 1.2 9.6.2 19-3 28a46.4 46.4 0 0 1-6.5 9.5 61.8 61.8 0 0 0-12 6 34 34 0 0 0-7.5 1.5c-6.5-.8-12.8-.8-19 0a29.5 29.5 0 0 1-21-10 20.4 20.4 0 0 0-1.5-5.5c.6-.4.9-.9 1-1.5h1c.3 3.2 1.6 5.9 4 8a25 25 0 0 0 11 4.5c10 .7 20 .7 30 0a32 32 0 0 0 16.5-9.5c4-10 5-20.4 3-31-3.5-3.4-3.2-6.4 1-9 .7-1.2.6-2.2-.5-3a519.1 519.1 0 0 0 19.5-19c-.1 2-.7 4-1.5 6Z"/><path fill="#f2c1df" d="M422.5 433.5c2.5 1.2 2.5 2.5 0 4a45 45 0 0 0-6 5.5c4.3 3 6.3 7.1 6 12.5a37.3 37.3 0 0 1-1 6 120.5 120.5 0 0 1-9 9.5c-4.5 2-9.1 2.7-14 2.5a526.2 526.2 0 0 0-17-1.5l-3.5-3.5a50 50 0 0 0-.5-6 322.3 322.3 0 0 0 45-29Z"/><path fill="#f3c3e0" d="M82.5 444.5a4.5 4.5 0 0 0 5.5 0 1136.8 1136.8 0 0 0 28.5 14.5c6.1 4 6.5 8.3 1 13-2.2-.4-4.3 0-6.5 1.5-6 0-12.1 0-18.5-.5-12-3.4-16.6-11.2-13.5-23.5 1.8-1.3 3-3 3.5-5Z"/><path fill="#e48db4" d="M72.5 420.5a39.9 39.9 0 0 1 8 7 12.8 12.8 0 0 1-6-3l-1 1c1 1.6 1.2 3.3.5 5a17 17 0 0 0-8.5 18c0 8.4 1.9 16.4 5.5 24 6 7.7 14 12 24 13 8.5.1 17.3-.4 26.5-1.5 6.8-1 12.3-4.1 16.5-9.5 1.3-2.9 1.8-5.9 1.5-9a18.7 18.7 0 0 1 7 3 27.1 27.1 0 0 1-24 19.5l-9 1.5a266.3 266.3 0 0 0-19 0c-18.6-.5-29-9.8-31.5-28a190.6 190.6 0 0 1-1-34l5-3c.5-1.6.7-3.3.5-5a20.7 20.7 0 0 1 5 1Z"/><path fill="#eeb2d4" d="M422.5 437.5a18.5 18.5 0 0 1-2 3.5c2.4 2 3.9 4.5 4.5 7.5a60 60 0 0 1-1 18 33.1 33.1 0 0 1-15 12 906.4 906.4 0 0 0-22 0 66.8 66.8 0 0 1-13.5-5.5 14.8 14.8 0 0 1-3-7.5 32.5 32.5 0 0 1 7-3c.3 1.8.4 3.8.5 6l3.5 3.5 17 1.5a32 32 0 0 0 14-2.5 120.5 120.5 0 0 0 9-9.5c.5-2 .8-4 1-6 .3-5.4-1.7-9.6-6-12.5 2-2 4-4 6-5.5Z"/><path fill="#e99fc3" d="M80.5 427.5a16.6 16.6 0 0 1 6 5c-1.7-1-3.4-1-5 0a6.8 6.8 0 0 1 1 4 13 13 0 0 0-5 .5 14.6 14.6 0 0 0-7 15c-.2 14.8 6.8 24.1 21 28 10 .9 20 .6 30-1 8.8-2 12.8-7.5 12-16.5 2.3.5 4.3 1.5 6 3 .3 3.1-.2 6.1-1.5 9a24.7 24.7 0 0 1-16.5 9.5c-9.2 1.1-18 1.6-26.5 1.5-10-1-18-5.3-24-13a55.9 55.9 0 0 1-5.5-24c-1-8 1.9-14 8.5-18 .7-1.7.5-3.4-.5-5l1-1a12.8 12.8 0 0 0 6 3Z"/><path fill="#d86591" d="M447.5 417.5c1.8 19.5.8 38.9-3 58a34.2 34.2 0 0 1-32 24.5c-13.4.9-26.7.6-40-1a31.7 31.7 0 0 1-22-13 5 5 0 0 0-3-.5 4 4 0 0 0-2-3.5c-7.7-2.9-7.7-5 0-6.5a34.2 34.2 0 0 0 25 20.5c13.7 1.4 27.2 1.9 40.5 1.5a37.2 37.2 0 0 0 34-29 454.8 454.8 0 0 0 2.5-30 82 82 0 0 1 0-21Z"/><path fill="#e48db4" d="M437.5 425.5a14 14 0 0 1-1 3.5 70 70 0 0 1-3.5 47.5 34.7 34.7 0 0 1-6.5 7.5 132.8 132.8 0 0 1-22 5.5 354 354 0 0 1-28-1.5 25.7 25.7 0 0 1-18.5-9.5 17.8 17.8 0 0 1-1.5-7 32.5 32.5 0 0 1 7-3c-.1.6-.4 1.1-1 1.5a20.4 20.4 0 0 1 1.5 5.5 29.5 29.5 0 0 0 21 10c6.2-.8 12.5-.8 19 0a34 34 0 0 1 7.5-1.5 61.8 61.8 0 0 1 12-6 46.4 46.4 0 0 0 6.5-9.5c3.2-9 4.2-18.4 3-28-3.8-6.5-2.3-11.5 4.5-15Z"/><path fill="#d55e8b" d="M158.5 473.5c2.6.1 5 1 7 2.5a433 433 0 0 0-12.5 16.5 45.1 45.1 0 0 1-21.5 11.5 257 257 0 0 1-55 0 14 14 0 0 1-6.5-4.5 42.4 42.4 0 0 0-5-10c-.4.6-.9.9-1.5 1a76.3 76.3 0 0 1-2-14 59.8 59.8 0 0 0 5 9c-.3 5.9 2.4 9.7 8 11.5l12 3c12 .7 24 .7 36 0 12-1.4 22.4-6.5 31-15.5a81 81 0 0 0 5-11Z"/><path fill="#df7ea7" d="M441.5 421.5a63.8 63.8 0 0 1-2 7.5c2.5 13.5 2.3 27-.5 40.5a31 31 0 0 1-29.5 23.5c-12 .8-23.7.5-35-1a49.3 49.3 0 0 1-17-7c-4.3-3.3-5.6-7.5-4-12.5a5.7 5.7 0 0 0 3-1c0 2.4.5 4.8 1.5 7 4.8 5.7 11 9 18.5 9.5a354 354 0 0 0 28 1.5 132.8 132.8 0 0 0 22-5.5 34.7 34.7 0 0 0 6.5-7.5 69.9 69.9 0 0 0 3.5-47.5 14 14 0 0 0 1-3.5c1.7-1 3-2.4 4-4Z"/><path fill="#7a162f" d="M347.5 485.5a102.5 102.5 0 0 0 11 16 35 35 0 0 0 14 10h-15c0-.7-.3-1-1-1a35.3 35.3 0 0 0-29.5-22c-7.3 0-14.4.6-21.5 1.5-4.3.8-6 3.3-5 7.5-1.3-3-2-6.4-2-10a559.6 559.6 0 0 0 32.5-7 31 31 0 0 1 16.5 5Zm-168-5a389.3 389.3 0 0 0 33 7c-.6 3.9-1.6 7.5-3 11-.5-4.8-3.1-7.6-8-8.5a66 66 0 0 0-28 0 35.2 35.2 0 0 0-23 21.5h-13a41 41 0 0 0 19.5-15 22 22 0 0 1 22.5-16Z"/><path fill="#d45b88" d="M444.5 475.5a106.4 106.4 0 0 1-3 19c-.6 7.6-4.6 12-12 13a1921.5 1921.5 0 0 0-61-1.5 66.6 66.6 0 0 0-10-4.5 102.5 102.5 0 0 1-11-16 5 5 0 0 1 3 .5 31.7 31.7 0 0 0 22 13 216.1 216.1 0 0 0 40 1 34.2 34.2 0 0 0 32-24.5Z"/><path fill="#d96c97" d="M153.5 471.5c1.9.3 3.6 1 5 2a81 81 0 0 1-5 11c-8.6 9-19 14.1-31 15.5-12 .7-24 .7-36 0l-12-3c-5.6-1.8-8.3-5.6-8-11.5a33 33 0 0 0 19 8.5c12.7 2 25.3 2 38 0a33 33 0 0 0 30-22.5Z"/><path fill="#8d1d3d" d="M356.5 510.5a8.4 8.4 0 0 1-4-.5c-10-15.8-24.4-21.5-43-17-4 .6-6.7 2.7-8 6.5-.8-.3-1.2-1-1-2-1-4.2.7-6.7 5-7.5a181.3 181.3 0 0 1 21.5-1.5c14 1.8 23.8 9.2 29.5 22Z"/><path fill="#dd7aa3" d="M58.5 407.5a64 64 0 0 1 14 13 20.7 20.7 0 0 0-5-1 13 13 0 0 1-.5 5l-5 3a190.6 190.6 0 0 0 1 34c2.4 18.2 13 27.5 31.5 28a266.3 266.3 0 0 1 19 0l9-1.5a27 27 0 0 0 24-19.5c2.7.2 5 1.2 7 3a33 33 0 0 1-30 22.5 121 121 0 0 1-38 0 33 33 0 0 1-19-8.5 59.8 59.8 0 0 1-5-9 688.6 688.6 0 0 1-3-69Z"/><path fill="#942243" d="M209.5 498.5c-.3 5.2-2.6 9.2-7 12a27.4 27.4 0 0 0 .5-11c-1.4-2.4-3.4-4-6-5a239 239 0 0 0-18.5.5 26.1 26.1 0 0 0-20 14.5 463 463 0 0 0 43 1v1h-51c4.3-10.8 12-18 23-21.5a66 66 0 0 1 28 0c4.9.9 7.5 3.7 8 8.5Z"/><path fill="#db709b" d="M447.5 415.5v2a82 82 0 0 0 0 21 454.8 454.8 0 0 1-2.5 30 37.2 37.2 0 0 1-34 29c-13.3.4-26.8-.1-40.5-1.5a34.2 34.2 0 0 1-25-20.5l8-3c-1.6 5-.3 9.2 4 12.5a49.3 49.3 0 0 0 17 7c11.3 1.5 23 1.8 35 1a31 31 0 0 0 29.5-23.5c2.8-13.5 3-27 .5-40.5a63.8 63.8 0 0 0 2-7.5 25.6 25.6 0 0 0 6-6Z"/><path fill="#9e264b" d="M356.5 510.5c.7 0 1 .3 1 1h-48v-1c11.7.2 23.3 0 35-.5-.2-2.8-2-5.7-5.5-8.5l-1 1a16 16 0 0 0-11-5l-12.5.5c-1.4 1.3-2.7 1.5-4 .5a6.4 6.4 0 0 0-4 5.5 13 13 0 0 1 1 5.5c-4-2-6-5.4-6-10 1.3-3.8 4-6 8-6.5 18.6-4.5 33 1.2 43 17a8.4 8.4 0 0 0 4 .5Z"/><path fill="#c3416c" d="M449.5 472.5c-.8 12.6-3.6 24.6-8.5 36-1.4 1.3-3 2.3-4.5 3h-64a35 35 0 0 1-14-10 66.6 66.6 0 0 1 10 4.5c20.4.2 40.7.7 61 1.5 7.4-1 11.4-5.4 12-13 1.3-1.3 2.1-3 2.5-5l3-14 1 2a13 13 0 0 1 1.5-5Z"/><path fill="#a92851" d="M202.5 510.5h-1a463 463 0 0 1-43-1 26.1 26.1 0 0 1 20-14.5 239 239 0 0 1 18.5-.5c2.6 1 4.6 2.6 6 5a27.4 27.4 0 0 1-.5 11Z"/><path fill="#ab2952" d="M309.5 510.5c-1 .2-1.7-.2-2-1a13 13 0 0 0-1-5.5 6.4 6.4 0 0 1 4-5.5c1.3 1 2.6.8 4-.5l12.5-.5c4.3.2 8 1.9 11 5l1-1c3.5 2.9 5.3 5.7 5.5 8.5-11.7.5-23.3.7-35 .5Z"/><path fill="#c7416d" d="M179.5 480.5a22 22 0 0 0-22.5 16 41 41 0 0 1-19.5 15h-63c-5.2-2.7-8.2-7-9-13 2 3 4.8 5.4 8 7.5 22.3.7 44.7.7 67 0a23 23 0 0 0 5-2 96.6 96.6 0 0 0 16-21 34 34 0 0 1 11.5-4.5c2.5 0 4.7.7 6.5 2Z"/></svg>